/* XPM */
static char * control_center_xpm[] = {
"32 32 292 2",
"  	c None",
". 	c #D2D2D1",
"+ 	c #CBCACA",
"@ 	c #D6D5D5",
"# 	c #CAC9C9",
"$ 	c #D1D0D0",
"% 	c #CFCFCF",
"& 	c #B6B6B5",
"* 	c #C4C4C3",
"= 	c #DDDDDD",
"- 	c #E5E5E5",
"; 	c #CDCCCC",
"> 	c #DEDEDE",
", 	c #D5D4D4",
"' 	c #C0C0C0",
") 	c #CACAC9",
"! 	c #E2E2E2",
"~ 	c #C2C2C1",
"{ 	c #E4E3E3",
"] 	c #D4D3D3",
"^ 	c #EBEBEA",
"/ 	c #E3E3E2",
"( 	c #D7D7D7",
"_ 	c #E2E1E1",
": 	c #DCDBDB",
"< 	c #CBCBCA",
"[ 	c #D1D1D0",
"} 	c #E7E6E6",
"| 	c #E9E9E8",
"1 	c #C8C8C8",
"2 	c #B4B4B3",
"3 	c #C5C5C4",
"4 	c #E3E2E2",
"5 	c #F1F1F0",
"6 	c #E6E6E6",
"7 	c #E3E3E3",
"8 	c #D9D9D8",
"9 	c #E4E4E3",
"0 	c #DFDEDE",
"a 	c #C0C0BF",
"b 	c #BFBFBE",
"c 	c #E2E2E1",
"d 	c #D6D6D6",
"e 	c #F5F5F5",
"f 	c #F4F4F4",
"g 	c #E5E5E4",
"h 	c #D5D5D4",
"i 	c #D8D8D7",
"j 	c #DDDDDC",
"k 	c #C7C7C6",
"l 	c #D9D9D9",
"m 	c #ECECEC",
"n 	c #C8C8C7",
"o 	c #DAD9D9",
"p 	c #FFFFFF",
"q 	c #E8E8E8",
"r 	c #CFCECE",
"s 	c #E5E4E4",
"t 	c #CFCFCE",
"u 	c #AEAEAD",
"v 	c #A09F9E",
"w 	c #9D9D9C",
"x 	c #A0A09F",
"y 	c #B5B5B4",
"z 	c #DEDEDD",
"A 	c #EAEAEA",
"B 	c #B9B9B8",
"C 	c #D0CFCF",
"D 	c #FEFEFE",
"E 	c #FDFDFD",
"F 	c #F8F8F8",
"G 	c #A1A09F",
"H 	c #9EA0A0",
"I 	c #A7ADAC",
"J 	c #AFAFAE",
"K 	c #B6BAB9",
"L 	c #A9AFAE",
"M 	c #9B9B9A",
"N 	c #D5D5D5",
"O 	c #CECECD",
"P 	c #C6C6C5",
"Q 	c #F0F0F0",
"R 	c #D4D4D3",
"S 	c #A8A8A7",
"T 	c #AAAFAE",
"U 	c #AD9E9D",
"V 	c #A65955",
"W 	c #A93F39",
"X 	c #AE504A",
"Y 	c #C89E9B",
"Z 	c #CACDCD",
"` 	c #A3A3A2",
" .	c #E6E6E5",
"..	c #DADAD9",
"+.	c #D8D8D8",
"@.	c #DFE0DF",
"#.	c #F1F1F1",
"$.	c #BDBCBB",
"%.	c #B1B4B3",
"&.	c #B1A2A0",
"*.	c #A62C25",
"=.	c #C61911",
"-.	c #D11F17",
";.	c #C91B13",
">.	c #AA150D",
",.	c #C48B87",
"'.	c #C6CBCB",
").	c #B7B6B5",
"!.	c #EAE9E9",
"~.	c #DFDFDF",
"{.	c #C3C2C2",
"].	c #CECDCD",
"^.	c #BDBDBC",
"/.	c #BFC5C5",
"(.	c #AC5A56",
"_.	c #C91910",
":.	c #DC251D",
"<.	c #DA251D",
"[.	c #DB251D",
"}.	c #D42119",
"|.	c #A8261E",
"1.	c #CABCBB",
"2.	c #B9BCBC",
"3.	c #EFEFEF",
"4.	c #E1E0E0",
"5.	c #ECEBEB",
"6.	c #F0EFEF",
"7.	c #C5C6C5",
"8.	c #C9C9C8",
"9.	c #B23C36",
"0.	c #D72017",
"a.	c #D9251D",
"b.	c #B51B13",
"c.	c #B59290",
"d.	c #C6CBCA",
"e.	c #F0F1F0",
"f.	c #ECECEB",
"g.	c #DCDCDC",
"h.	c #D9D8D8",
"i.	c #D0D1D0",
"j.	c #D8DBDB",
"k.	c #B74B46",
"l.	c #D41C14",
"m.	c #B31B14",
"n.	c #B09593",
"o.	c #CED2D2",
"p.	c #CBCBCB",
"q.	c #F3F3F3",
"r.	c #F1F1F2",
"s.	c #EBEBEB",
"t.	c #DCDCDB",
"u.	c #D4D2D3",
"v.	c #E0E0DF",
"w.	c #DEE4E4",
"x.	c #CC9A97",
"y.	c #BC130B",
"z.	c #DB231B",
"A.	c #CD1B12",
"B.	c #A13731",
"C.	c #C1C0C0",
"D.	c #D5D6D5",
"E.	c #F6F6F6",
"F.	c #CFCDCD",
"G.	c #E9ECEC",
"H.	c #BD7774",
"I.	c #B51E17",
"J.	c #C31911",
"K.	c #BB1A12",
"L.	c #A1332E",
"M.	c #B3A2A1",
"N.	c #DFE4E3",
"O.	c #F9F9F9",
"P.	c #D4D4D4",
"Q.	c #CCCBCB",
"R.	c #C2C1C1",
"S.	c #C5C4C4",
"T.	c #E0DFDF",
"U.	c #E7E8E8",
"V.	c #E9EEEE",
"W.	c #C6B3B2",
"X.	c #AF8280",
"Y.	c #B08F8D",
"Z.	c #C7C5C5",
"`.	c #E8ECEC",
" +	c #DEDDDD",
".+	c #CCCCCC",
"++	c #FAFAFA",
"@+	c #BFBEBE",
"#+	c #B8B7B7",
"$+	c #BBBABA",
"%+	c #BEBDBD",
"&+	c #C8C7C7",
"*+	c #DBDADA",
"=+	c #EFEFEE",
"-+	c #F3F7F7",
";+	c #F2F9F9",
">+	c #F3F8F8",
",+	c #F2F3F3",
"'+	c #EDEDED",
")+	c #F1F0F0",
"!+	c #C9C8C8",
"~+	c #C7C6C6",
"{+	c #D8D7D7",
"]+	c #B7B6B6",
"^+	c #D7D6D6",
"/+	c #D2D1D1",
"(+	c #E9E9E9",
"_+	c #DBDBDA",
":+	c #C0BFBF",
"<+	c #C4C3C3",
"[+	c #C6C5C5",
"}+	c #CACACA",
"|+	c #DDDCDC",
"1+	c #CCCCCB",
"2+	c #BCBBBB",
"3+	c #B6B5B5",
"4+	c #F2F2F2",
"5+	c #E0E0E0",
"6+	c #D3D3D3",
"7+	c #FCFCFC",
"8+	c #DFDFDE",
"9+	c #D6D6D5",
"0+	c #B7B7B6",
"a+	c #AFAEAE",
"b+	c #EBEAEA",
"c+	c #DADADA",
"d+	c #BAB9B9",
"e+	c #B3B5B5",
"f+	c #B6BABA",
"g+	c #C5C5C5",
"h+	c #CDCDCC",
"i+	c #B6B4B4",
"j+	c #C6C6C6",
"k+	c #BCBCBB",
"l+	c #9FA3A2",
"m+	c #A39694",
"n+	c #AB9593",
"o+	c #AFAEAD",
"p+	c #BABCBB",
"q+	c #CDCDCD",
"r+	c #ABAFAF",
"s+	c #AC7874",
"t+	c #B62821",
"u+	c #BA2119",
"v+	c #B75751",
"w+	c #BCB4B3",
"x+	c #C8CACA",
"y+	c #E4E4E4",
"z+	c #E1E1E1",
"A+	c #EEEDED",
"B+	c #CCCFCF",
"C+	c #B8ABA9",
"D+	c #BD2821",
"E+	c #DC2018",
"F+	c #DD241C",
"G+	c #C4140C",
"H+	c #B47471",
"I+	c #C0C6C6",
"J+	c #D8DCDC",
"K+	c #C6AFAE",
"L+	c #C82018",
"M+	c #DC241C",
"N+	c #D31A12",
"O+	c #AA5753",
"P+	c #C3CBCA",
"Q+	c #BDBCBC",
"R+	c #C8C6C6",
"S+	c #E4E5E5",
"T+	c #DBDDDD",
"U+	c #C55650",
"V+	c #D2130B",
"W+	c #D81A12",
"X+	c #B91B13",
"Y+	c #B59695",
"Z+	c #D1D6D6",
"`+	c #D0D0D0",
" @	c #EBEEED",
".@	c #DFD8D8",
"+@	c #BE7571",
"@@	c #B45853",
"#@	c #BC9C9B",
"$@	c #DADFDF",
"%@	c #E5E6E6",
"&@	c #E9F1F1",
"*@	c #E6EEEE",
"=@	c #E3E7E8",
"-@	c #B3B2B2",
";@	c #C9C9C9",
">@	c #E6E5E5",
",@	c #B5B4B4",
"'@	c #DBD9D9",
")@	c #B4B2B2",
"                    . + @                                       ",
"            # $     % & *       = -                             ",
"          ; > $     , ' )     ! & ~ {                           ",
"          ] ^ / ( _ : < [ } | 1 2 3                             ",
"            4 5 6 _ 7 8 @ 9 0 a b c                             ",
"    @ d     $ e f g h [ i j h k l m   = n o                     ",
"  $ p p q r s f t u v w x y z 9 ( A o * B '                     ",
"  C - D p E F * G H I J K L M ] A N O n P )                     ",
"      N Q p R S T U V W X Y Z ` :  ...+.@.                      ",
"      C @ #.$.%.&.*.=.-.;.>.,.'.).!. .~.                        ",
"{.].r $ q 7 ^./.(._.:.<.[.}.|.1.2.i 3.9 d C k +.                ",
"# 4.} 5.6.c 7.8.9.0.a.a.a.[.b.c.d.].#.f e.f.g.i                 ",
"{.$ ] h.{ A i.j.k.l.a.a.a.[.m.n.o.p.q.r.s.A t.(                 ",
"      $ u.q v.w.x.y.z.[.:.A.B.C.D.$ E.d     ^.                  ",
"      o F.h.Q ~.G.H.I.J.K.L.M.N.C 7 O.P.                        ",
"    Q.R.{.S.T.Q U.V.W.X.Y.Z.`. +.+++p O.0 8                     ",
"  @+#+$+%+].&+*+5.=+-+;+>+,+: # '+'+)+p p 6 !+# ~+:             ",
"  {+]+@+^+!.4.C.# /+@ h., + $ 5.(+i _+= E._+  %+& *+            ",
"    C l     ] $+:++ <+[+; h.4 s { ~.  P.}+    ) b |+    1+*+    ",
"          4 2+3+, 4+|+@+r (+5+{+T.6+t.7+m {+> 8+9+8  .% 2 0+ +  ",
"          !+a+@+b+  c+d+}+    h ] @ 1+4+E 5 # e+f+g+..k ^.h+    ",
"          : S.^+    ( i+j+    4.!+O h.{+E.k+l+m+n+o+p+4.N       ",
"                    h.d+!+      q+     ++.r+s+t+u+v+w+x+- =     ",
"                    y+_ z+      ].*+4.A+B+C+D+E+F+G+H+I+{ 6 t.< ",
"                                &+/+|+} J+K+L+M+[.N+O+P+z+O.q.c+",
"                                ~+Q+R+/+S+T+U+V+W+X+Y+Z+(+|+`+&+",
"                                      C {+ @.@+@@@#@$@h.q       ",
"                                      S.Q+/+%@&@*@=@, 5.Q ~.    ",
"                                    Q+-@#++ p.~+;@C |+>@)+q ..  ",
"                                    ^+,@;   m <+%+l    +'@8     ",
"                                      4       %+)@+.    +.      ",
"                                              ; R.l             "};
