/* XPM */
static char * filesave_xpm[] = {
"32 32 235 2",
"  	c None",
". 	c #666666",
"+ 	c #7F8184",
"@ 	c #A1A3A5",
"# 	c #A4A6A8",
"$ 	c #7A70A2",
"% 	c #513B99",
"& 	c #452C96",
"* 	c #3D4044",
"= 	c #52565B",
"- 	c #64686F",
"; 	c #4E4973",
"> 	c #AFAFAF",
", 	c #2B2D2F",
"' 	c #424449",
") 	c #62666D",
"! 	c #777C84",
"~ 	c #6D6B8D",
"{ 	c #B7B7B7",
"] 	c #6D6C8D",
"^ 	c #777B84",
"/ 	c #3D3F43",
"( 	c #484B51",
"_ 	c #6B6F77",
": 	c #818690",
"< 	c #7E7F9B",
"[ 	c #909094",
"} 	c #909498",
"| 	c #90999E",
"1 	c #90A0A5",
"2 	c #90A8AD",
"3 	c #90AFB5",
"4 	c #90B7BD",
"5 	c #90BDC4",
"6 	c #90C3CA",
"7 	c #90C7CE",
"8 	c #4A4E53",
"9 	c #6D727B",
"0 	c #838993",
"a 	c #81819E",
"b 	c #C7C7C7",
"c 	c #4A4E52",
"d 	c #6B6F78",
"e 	c #808590",
"f 	c #7D7F9A",
"g 	c #CFCFCF",
"h 	c #CFD0CF",
"i 	c #CFCFD0",
"j 	c #D0CFCF",
"k 	c #D0D0CF",
"l 	c #D0D0D0",
"m 	c #CFD0D0",
"n 	c #D0CFD0",
"o 	c #808690",
"p 	c #464A50",
"q 	c #686D75",
"r 	c #7D838D",
"s 	c #7A7B97",
"t 	c #A3A3AF",
"u 	c #A3A7B3",
"v 	c #A3AEB8",
"w 	c #A3B5BE",
"x 	c #A3BEC4",
"y 	c #A3C6CB",
"z 	c #A3CED2",
"A 	c #A3D6D8",
"B 	c #A3DCDD",
"C 	c #A3E1E1",
"D 	c #A3CFD2",
"E 	c #45484F",
"F 	c #666B74",
"G 	c #7B818B",
"H 	c #787A95",
"I 	c #E0E0E0",
"J 	c #45484E",
"K 	c #666B73",
"L 	c #7B808A",
"M 	c #787994",
"N 	c #E7E7E7",
"O 	c #E8E7E7",
"P 	c #E7E7E8",
"Q 	c #E7E8E7",
"R 	c #E8E8E8",
"S 	c #E8E7E8",
"T 	c #B4BBC9",
"U 	c #B3BFCB",
"V 	c #B4C5CF",
"W 	c #B4CBD4",
"X 	c #B4D3DB",
"Y 	c #B4DAE0",
"Z 	c #B4E1E6",
"` 	c #B4E8EA",
" .	c #B4EDEF",
"..	c #B4F2F2",
"+.	c #B4EEEF",
"@.	c #B3E9EB",
"#.	c #B4E1E5",
"$.	c #B4CBD5",
"%.	c #B3C5D0",
"&.	c #B4BFCC",
"*.	c #46494F",
"=.	c #676C74",
"-.	c #7C828C",
";.	c #848A9A",
">.	c #F5F5F5",
",.	c #7D838E",
"'.	c #A1A7AF",
").	c #FAFAFA",
"!.	c #686D76",
"~.	c #474B51",
"{.	c #6A6F78",
"].	c #7F858F",
"^.	c #ABB0B8",
"/.	c #C6CAD0",
"(.	c #D5D7DC",
"_.	c #D7DADE",
":.	c #494C52",
"<.	c #6B7179",
"[.	c #818791",
"}.	c #9096A1",
"|.	c #969DA9",
"1.	c #979EA9",
"2.	c #979DA9",
"3.	c #8F96A1",
"4.	c #828791",
"5.	c #9298A4",
"6.	c #99A0AC",
"7.	c #838994",
"8.	c #4B4F54",
"9.	c #6F747D",
"0.	c #868C96",
"a.	c #737780",
"b.	c #575B62",
"c.	c #4E5257",
"d.	c #4D5056",
"e.	c #71767F",
"f.	c #898E98",
"g.	c #DEDEDE",
"h.	c #C5C5C5",
"i.	c #C0C0C0",
"j.	c #C1C1C1",
"k.	c #C3C3C3",
"l.	c #CBCBCB",
"m.	c #D4D4D4",
"n.	c #D8D8D8",
"o.	c #DBDBDB",
"p.	c #DDDDDD",
"q.	c #D5D5D5",
"r.	c #C9C9C9",
"s.	c #72767F",
"t.	c #4E5157",
"u.	c #737880",
"v.	c #8A909A",
"w.	c #828892",
"x.	c #8C8C8C",
"y.	c #555555",
"z.	c #575757",
"A.	c #565656",
"B.	c #8E8E8E",
"C.	c #4F5258",
"D.	c #747A81",
"E.	c #8C929C",
"F.	c #8B919B",
"G.	c #606060",
"H.	c #676767",
"I.	c #6A6A6A",
"J.	c #696969",
"K.	c #616161",
"L.	c #DADADA",
"M.	c #8C929B",
"N.	c #747A82",
"O.	c #505358",
"P.	c #767B83",
"Q.	c #8E949D",
"R.	c #8D939D",
"S.	c #727272",
"T.	c #747474",
"U.	c #6B6B6B",
"V.	c #8D939C",
"W.	c #757A82",
"X.	c #51535A",
"Y.	c #8E959F",
"Z.	c #8F949E",
"`.	c #6C6C6C",
" +	c #737373",
".+	c #757575",
"++	c #6E6E6E",
"@+	c #8D929D",
"#+	c #8C939C",
"$+	c #747880",
"%+	c #4D5156",
"&+	c #51545A",
"*+	c #787D84",
"=+	c #8F969F",
"-+	c #8F959F",
";+	c #8A9099",
">+	c #888D96",
",+	c #6E7279",
"'+	c #474B4F",
")+	c #4D5054",
"!+	c #71767D",
"~+	c #888E97",
"{+	c #9399A3",
"]+	c #8A8F99",
"^+	c #7B8189",
"/+	c #575B60",
"(+	c #373A3D",
"_+	c #43444A",
":+	c #63676E",
"<+	c #787D85",
"[+	c #959AA2",
"}+	c #8A8E96",
"|+	c #5C5E65",
"1+	c #333538",
"2+	c #3E3F41",
"3+	c #3A3D41",
"4+	c #5F646A",
"5+	c #858990",
"6+	c #9EA1A6",
"7+	c #AAADB2",
"8+	c #ADAFB5",
"9+	c #ADAFB4",
"0+	c #ACAFB4",
"a+	c #A9ACB0",
"b+	c #979AA0",
"c+	c #717378",
"d+	c #313336",
"e+	c #39393B",
"f+	c #202124",
"g+	c #151517",
"h+	c #171719",
"i+	c #1A1B1D",
"j+	c #1B1C1E",
"k+	c #18191B",
"l+	c #343436",
"                                                                ",
"                                                                ",
"      . . . . . . . . . . . . . . . . . . . . . . . . . .       ",
"    . + @ # $ % & & & & & & & & & & & & & & & & % $ # @ + .     ",
"    . * = - ; > > > > > > > > > > > > > > > > > > ; - , * .     ",
"    . ' ) ! ~ { { { { { { { { { { { { { { { { { { ] ^ / ' .     ",
"    . ( _ : < [ } | 1 2 3 4 5 6 7 6 5 4 3 2 1 | } < : _ ( .     ",
"    . 8 9 0 a b b b b b b b b b b b b b b b b b b a 0 9 c .     ",
"    . ( d e f g h i j k i l g k h g k m n n m l k f o d ( .     ",
"    . p q r s t u v w x y z A B C B A D y x w v u s r q p .     ",
"    . E F G H I I I I I I I I I I I I I I I I I I H G F E .     ",
"    . J K L M N N N O P Q R N N Q N P N N S Q N S M L K J .     ",
"    . E F G H T U V W X Y Z `  ...+.@.#.Y X $.%.&.H G F E .     ",
"    . *.=.-.;.>.>.>.>.>.>.>.>.>.>.>.>.>.>.>.>.>.>.;.-.=.*..     ",
"    . p q ,.'.).).).).).).).).).).).).).).).).).).'.r !.p .     ",
"    . ~.{.].^./.(._._._._._._._._._._._._._._.(./.^.].{.~..     ",
"    . :.<.[.}.|.|.1.2.|.|.1.2.|.1.|.|.2.2.2.2.2.|.3.4.<.:..     ",
"    . 8 9 0 5.6.6.6.6.6.6.6.6.6.6.6.6.6.6.6.6.6.6.5.7.9 8 .     ",
"    . 8.9.0.a.b.c.c.c.c.c.c.c.c.c.c.c.c.c.c.c.c.b.a.0.9.8..     ",
"    . d.e.f.e.g.l h.i.j.k.b l.g m.n.o.p.p.o.q.g r.e.f.s.d..     ",
"    . t.u.v.w.g.l x.y.z.A.B.l.g m.n.o.p.p.o.q.g r.w.v.u.t..     ",
"    . C.D.E.F.g.l G.H.I.J.K.l.g m.n.o.p.p.L.q.g r.F.M.N.C..     ",
"    . O.P.Q.R.g.l I.S.T.T.U.l.g m.n.o.p.p.o.q.g r.R.V.W.C..     ",
"    . X.! Y.Z.g.l `. +T..+++l.g m.n.o.p.p.o.q.g r.@+#+$+%+.     ",
"    . &+*+=+-+g.l `. +T..+++l.g m.n.o.p.p.o.q.g r.;+>+,+'+.     ",
"    . )+!+~+{+g.l `. +T..+++l.g m.n.o.p.p.o.q.g r.]+^+/+(+.     ",
"    . _+:+<+[+g.l `. +T..+++l.g m.n.o.p.p.o.q.g r.}+|+1+2+      ",
"    . 3+c.4+5+6+7+8+9+9+9+9+9+9+9+9+9+9+9+8+0+a+b+c+d+e+        ",
"    . f+g+h+i+j+j+j+j+j+j+j+j+j+j+j+j+j+j+j+j+i+k+g+l+          ",
"      . . . . . . . . . . . . . . . . . . . . . . .             ",
"                                                                ",
"                                                                "};
