/* XPM */
static char * print_xpm[] = {
"32 32 455 2",
"  	c None",
". 	c #C9C9C8",
"+ 	c #B4B4B4",
"@ 	c #B5B5B5",
"# 	c #B6B6B5",
"$ 	c #B6B6B6",
"% 	c #B8B6B8",
"& 	c #B8B8B8",
"* 	c #B8B9B8",
"= 	c #B9B9B9",
"- 	c #B8B9B9",
"; 	c #D0D0D0",
"> 	c #F6F6F6",
", 	c #F3F3F3",
"' 	c #F1F1F1",
") 	c #F4F4F4",
"! 	c #F7F5F7",
"~ 	c #F6F7F6",
"{ 	c #F8F8F8",
"] 	c #F7F7F9",
"^ 	c #F9F9F9",
"/ 	c #FAFAF9",
"( 	c #FAFAFA",
"_ 	c #FBFBFB",
": 	c #FDFDFD",
"< 	c #838383",
"[ 	c #EFEFEF",
"} 	c #DCDCDC",
"| 	c #DBDBDB",
"1 	c #DDDDDD",
"2 	c #DEDEDE",
"3 	c #DDDDDF",
"4 	c #DEDFDE",
"5 	c #E0E0E0",
"6 	c #E1DFDF",
"7 	c #E0E1E1",
"8 	c #E2E0E0",
"9 	c #E1E1E2",
"0 	c #E3E3E3",
"a 	c #E2E2E2",
"b 	c #E4E3E1",
"c 	c #F7F7F7",
"d 	c #818083",
"e 	c #F2F3F2",
"f 	c #DDDDDE",
"g 	c #DFDFDD",
"h 	c #E2E0E1",
"i 	c #E5E4E2",
"j 	c #E4E6E4",
"k 	c #E5E5E5",
"l 	c #E3E5E5",
"m 	c #FBFBFA",
"n 	c #AAAAAB",
"o 	c #99999C",
"p 	c #F1F1F2",
"q 	c #DFDFDE",
"r 	c #DFDDDF",
"s 	c #E0DFE0",
"t 	c #DFE1E0",
"u 	c #E3E3E1",
"v 	c #E3E4E4",
"w 	c #E2E4E5",
"x 	c #E4E3E4",
"y 	c #E4E3E3",
"z 	c #F4F4F5",
"A 	c #CECED1",
"B 	c #8F8F93",
"C 	c #EFEFF0",
"D 	c #E1E1E1",
"E 	c #DFDFDF",
"F 	c #DFE1DF",
"G 	c #E3E2E3",
"H 	c #E3E1E1",
"I 	c #F7F6F5",
"J 	c #C2C2C5",
"K 	c #8F8E94",
"L 	c #EEEEED",
"M 	c #DDDEDE",
"N 	c #E4E4E5",
"O 	c #E4E4E4",
"P 	c #E4E3E6",
"Q 	c #F5F7F6",
"R 	c #C0C0C5",
"S 	c #8B8B91",
"T 	c #EDEDEC",
"U 	c #E1E2E2",
"V 	c #DDDBDB",
"W 	c #DFE0E0",
"X 	c #DEDFDF",
"Y 	c #E0E2E0",
"Z 	c #E6E6E3",
"` 	c #F5F5F5",
" .	c #BEBEC1",
"..	c #8B8B90",
"+.	c #EBEBEB",
"@.	c #DBDEDC",
"#.	c #DEDDDD",
"$.	c #DEE0E0",
"%.	c #E2DFE1",
"&.	c #E5E3E6",
"*.	c #F6F6F5",
"=.	c #919194",
"-.	c #FCFCFC",
";.	c #FFFFFF",
">.	c #CCCCD0",
",.	c #363636",
"'.	c #585858",
").	c #555555",
"!.	c #595958",
"~.	c #5D5D5D",
"{.	c #5C5C5D",
"].	c #1C1C1D",
"^.	c #444544",
"/.	c #454345",
"(.	c #414143",
"_.	c #434442",
":.	c #434343",
"<.	c #424242",
"[.	c #444344",
"}.	c #454543",
"|.	c #434543",
"1.	c #454445",
"2.	c #454545",
"3.	c #444446",
"4.	c #444444",
"5.	c #4A4A4A",
"6.	c #29292D",
"7.	c #505151",
"8.	c #666666",
"9.	c #626262",
"0.	c #615F5F",
"a.	c #636363",
"b.	c #545454",
"c.	c #535153",
"d.	c #646464",
"e.	c #5E5E5E",
"f.	c #626465",
"g.	c #737373",
"h.	c #727272",
"i.	c #000000",
"j.	c #7D7D7D",
"k.	c #5B5D5B",
"l.	c #919292",
"m.	c #DCDBDB",
"n.	c #F0F0F0",
"o.	c #696969",
"p.	c #989896",
"q.	c #A0A0A0",
"r.	c #AAAAAA",
"s.	c #B3B3B3",
"t.	c #BABABA",
"u.	c #C1C3C3",
"v.	c #C6C6C6",
"w.	c #C7C7C7",
"x.	c #C5C5C5",
"y.	c #C1C1C1",
"z.	c #BBBBBB",
"A.	c #B2B2B2",
"B.	c #A9A9AA",
"C.	c #A2A2A2",
"D.	c #747475",
"E.	c #BDBDBD",
"F.	c #EAEAEA",
"G.	c #D8D8D8",
"H.	c #7D7D7C",
"I.	c #878788",
"J.	c #909191",
"K.	c #9D9C9C",
"L.	c #C8C6C6",
"M.	c #9DA0A0",
"N.	c #272725",
"O.	c #484849",
"P.	c #4E4E4E",
"Q.	c #535252",
"R.	c #565858",
"S.	c #5C5A5C",
"T.	c #606060",
"U.	c #616161",
"V.	c #626163",
"W.	c #636161",
"X.	c #5C5C5F",
"Y.	c #5A5A5A",
"Z.	c #565657",
"`.	c #51514F",
" +	c #4F4F4D",
".+	c #212121",
"++	c #8F8F8F",
"@+	c #D3D3D3",
"#+	c #CBCBCD",
"$+	c #C8C8C5",
"%+	c #BDBFBF",
"&+	c #646364",
"*+	c #696967",
"=+	c #6F6F6D",
"-+	c #737474",
";+	c #8C8C8A",
">+	c #636362",
",+	c #121013",
"'+	c #2A2A28",
")+	c #2C2C2C",
"!+	c #2D2D2D",
"~+	c #312E2E",
"{+	c #323232",
"]+	c #333334",
"^+	c #343434",
"/+	c #333333",
"(+	c #343534",
"_+	c #333331",
":+	c #313131",
"<+	c #2D2D2C",
"[+	c #2B2B2D",
"}+	c #111111",
"|+	c #494949",
"1+	c #828282",
"2+	c #9F9F9E",
"3+	c #878787",
"4+	c #989898",
"5+	c #78787A",
"6+	c #6D6D6B",
"7+	c #686869",
"8+	c #6C6C6C",
"9+	c #6B6B6B",
"0+	c #6D6D6E",
"a+	c #727270",
"b+	c #727273",
"c+	c #757573",
"d+	c #767676",
"e+	c #797979",
"f+	c #7C7C7C",
"g+	c #7D7B7B",
"h+	c #7E7E7E",
"i+	c #7F807F",
"j+	c #7A787A",
"k+	c #858685",
"l+	c #535353",
"m+	c #5F5F5E",
"n+	c #545656",
"o+	c #383838",
"p+	c #3E3F3E",
"q+	c #49494A",
"r+	c #464647",
"s+	c #3B3C3A",
"t+	c #3F3F3F",
"u+	c #414141",
"v+	c #414142",
"w+	c #454343",
"x+	c #484648",
"y+	c #494747",
"z+	c #484A48",
"A+	c #4B4B4B",
"B+	c #4C4C4D",
"C+	c #4E4E4C",
"D+	c #4C4C4C",
"E+	c #6B696B",
"F+	c #585958",
"G+	c #616261",
"H+	c #646264",
"I+	c #7C7D7B",
"J+	c #4B4849",
"K+	c #4F4F4F",
"L+	c #515351",
"M+	c #585756",
"N+	c #585859",
"O+	c #4C4B4B",
"P+	c #4D4E4F",
"Q+	c #515050",
"R+	c #515151",
"S+	c #515253",
"T+	c #535250",
"U+	c #525252",
"V+	c #535352",
"W+	c #555553",
"X+	c #545455",
"Y+	c #565656",
"Z+	c #6D6D6D",
"`+	c #6E6E6E",
" @	c #727070",
".@	c #7A7B7B",
"+@	c #5D5C5E",
"@@	c #4E514E",
"#@	c #575757",
"$@	c #3E4040",
"%@	c #3F3E3F",
"&@	c #3F413F",
"*@	c #414041",
"=@	c #414040",
"-@	c #3F4040",
";@	c #3E3E3E",
">@	c #404040",
",@	c #3E3E40",
"'@	c #3C3C3C",
")@	c #5E605E",
"!@	c #6E6D6D",
"~@	c #6C6C6E",
"{@	c #707070",
"]@	c #757475",
"^@	c #838283",
"/@	c #555554",
"(@	c #4D4D4D",
"_@	c #585A5A",
":@	c #0E0E0E",
"<@	c #1A1A1B",
"[@	c #1A1A1A",
"}@	c #1A1C1A",
"|@	c #1B1B1A",
"1@	c #19191B",
"2@	c #191919",
"3@	c #101011",
"4@	c #181716",
"5@	c #787878",
"6@	c #6F6F6F",
"7@	c #747474",
"8@	c #797A79",
"9@	c #818081",
"0@	c #505050",
"a@	c #3F3F40",
"b@	c #474747",
"c@	c #595959",
"d@	c #242424",
"e@	c #101010",
"f@	c #171715",
"g@	c #141414",
"h@	c #131212",
"i@	c #131414",
"j@	c #121212",
"k@	c #151515",
"l@	c #151313",
"m@	c #131313",
"n@	c #121214",
"o@	c #121414",
"p@	c #141412",
"q@	c #131314",
"r@	c #121210",
"s@	c #0D0D0E",
"t@	c #6A6A6A",
"u@	c #7B7B7B",
"v@	c #4B4B49",
"w@	c #4B4B4C",
"x@	c #484848",
"y@	c #686A6A",
"z@	c #373638",
"A@	c #5D5F5F",
"B@	c #5B5D5D",
"C@	c #5B5E5D",
"D@	c #5B5B5B",
"E@	c #5F5F5F",
"F@	c #6A6A6C",
"G@	c #727274",
"H@	c #626263",
"I@	c #686868",
"J@	c #5B5C5B",
"K@	c #8C8B8D",
"L@	c #4A4A49",
"M@	c #ACACAC",
"N@	c #898989",
"O@	c #858585",
"P@	c #8B8B8C",
"Q@	c #898987",
"R@	c #888888",
"S@	c #878789",
"T@	c #898788",
"U@	c #999999",
"V@	c #969696",
"W@	c #979797",
"X@	c #939393",
"Y@	c #8E8E8E",
"Z@	c #9A999A",
"`@	c #8E8E90",
" #	c #716F6F",
".#	c #7F8080",
"+#	c #808080",
"@#	c #8A8A89",
"##	c #6E6D6E",
"$#	c #6E7070",
"%#	c #626062",
"&#	c #F2F2F2",
"*#	c #ECECEC",
"=#	c #E6E6E6",
"-#	c #EEEDEE",
";#	c #EBEDEB",
">#	c #EFEDED",
",#	c #E6E8E6",
"'#	c #DEDCDC",
")#	c #CACBCB",
"!#	c #7D7C7E",
"~#	c #676769",
"{#	c #737371",
"]#	c #777777",
"^#	c #7F7F7F",
"/#	c #717171",
"(#	c #676967",
"_#	c #656765",
":#	c #504E50",
"<#	c #797778",
"[#	c #A8A8AA",
"}#	c #F0EEF0",
"|#	c #E9EAE9",
"1#	c #FEFEFE",
"2#	c #F0EEEE",
"3#	c #F3F2F2",
"4#	c #EBEDED",
"5#	c #ECEEEC",
"6#	c #F3F2F3",
"7#	c #EFEEEE",
"8#	c #EEEEEE",
"9#	c #F6F8F8",
"0#	c #7D7D7F",
"a#	c #494946",
"b#	c #505051",
"c#	c #656565",
"d#	c #9B9C9B",
"e#	c #9D9D9F",
"f#	c #8F908F",
"g#	c #8C8C8B",
"h#	c #B7B7B7",
"i#	c #E8E8E8",
"j#	c #E9E9E9",
"k#	c #ECEDED",
"l#	c #EEECEC",
"m#	c #F8F7F7",
"n#	c #8E8E91",
"o#	c #8D8D8D",
"p#	c #8B8B8B",
"q#	c #929290",
"r#	c #2B2B2B",
"s#	c #282828",
"t#	c #232523",
"u#	c #666667",
"v#	c #D9D7D9",
"w#	c #FDFDFE",
"x#	c #F6F6F4",
"y#	c #F9FAFA",
"z#	c #969697",
"A#	c #222222",
"B#	c #232323",
"C#	c #242426",
"D#	c #E2E2E4",
"E#	c #D8D8D9",
"F#	c #EAEAE8",
"G#	c #D6D4D6",
"H#	c #D8D6D8",
"I#	c #E7E7E7",
"J#	c #EFEDEF",
"K#	c #EEF0EF",
"L#	c #ACACAF",
"M#	c #636364",
"N#	c #D5D5D5",
"O#	c #E6E6E4",
"P#	c #D8D9D9",
"Q#	c #D7D8D7",
"R#	c #9E9EA2",
"S#	c #555658",
"T#	c #FFFFFE",
"U#	c #949497",
"V#	c #DFDEDF",
"                . + @ # $ $ % & * = = - = = & ;                 ",
"                > , ' , ) > ! ~ { ] ^ / ( _ ( : <               ",
"                [ } | 1 2 3 4 5 6 7 8 9 0 a b c                 ",
"              d e 5 f g 7 5 9 h a 0 0 i j k l m n               ",
"              o p q 2 r s 5 t u a v 0 w x k y z A               ",
"              B C D 1 E 7 5 F G a H 0 i j k j I J               ",
"              K L D M E 6 5 D G a v 0 N O k P Q R               ",
"              S T U V W X 5 D Y a 0 0 O O k Z `  .              ",
"              ..+.a @.#.E $.%.5 a 0 0 O y k &.*. .              ",
"              =.-.;.;.;.;.;.;.;.;.;.;.;.;.;.;.;.>.              ",
"  ,.'.).!.~.{.].^./.(._.:.<.[.}.|.1.2.2.2.3.4.5.6.7.8.9.0.a.b.  ",
"  c.d.e.f.g.h.i.i.i.i.i.i.i.i.i.i.i.i.i.i.i.i.i.i.5.j.0.k.~.d.  ",
"  l.m.a n.;.a o.p.q.r.s.t.u.v.w.. w.x.y.z.A.B.C.D.E.;.( F.G.+   ",
"  H.I.J.K.L.M.N.O.P.Q.R.S.e.T.U.V.W.T.X.Y.Z.`. +.+++) @+#+$+%+  ",
"  &+*+=+-+;+>+,+'+)+!+~+{+]+^+/+(+^+^+_+:+<+[+!+}+|+t.1+2+3+4+  ",
"  Y.b.S.9.o.5+6+7+8+8+9+0+a+b+c+d+e+f+g+j.h+h+i+j+k+U.l+m+n+++  ",
"  |+o+p+[.q+Y.r+s+t+<.u+:.v+w+2.x+y+z+A+B+C+D+|+A+E+F+G+H+8.I+  ",
"  '.J+K+L+M+N+O+P+Q+K+R+S+T+U+l+V+U+b.W+l+X+Y+'.).d.Z+Z+`+ @.@  ",
"  +@@@b.#@~.T.$@%@&@*@=@-@%@;@>@$@,@;@;@;@;@;@'@o+)@!@~@{@]@^@  ",
"  /@(@Y+_@9+/+:@<@[@}@[@[@[@[@[@[@|@1@2@2@2@2@[@3@4@5@6@7@8@9@  ",
"  0@a@2.b@c@d@e@f@g@h@i@j@j@k@j@l@m@n@o@p@m@m@q@r@s@o.d.t@6@u@  ",
"  7.v@w@0@x@y@z@t@~.Y.A@e.{.~.B@~.C@b.l+U+D@Y.E@u+F@9.6@`+G@1+  ",
"  H@a.d.I@J@K@L@M@3+N@O@P@Q@R@3+S@T@U@V@W@X@Y@Z@o.`@ #.#+#< @#  ",
"  t@h.##$#%#j.h+;.&#+.k F.*#=#-#;#>#p ,#+.'#n.;.)#!#~#{#]#j+^#  ",
"  `+/#(#_#:#<#[#;.}#|#1#2#' { , 3#4#5#6#7#8#;.;.9#0#a# +b#K+c#  ",
"  h.M@d#e#f#g#h#;.i#E j#k#j#+.O i#0 =#l#l i#^ ;.m#n#R@o#p#q#g.  ",
"    r#s#s#t#u#v#;.c w#x#y#_ ( ;.1#-.;.;.m#;.;.;._ z#)+A#B#C#    ",
"            5+D#;.E#F#G#H#k c ! I#8#{ 8#_ J#;.;.K#L#            ",
"            M#( ;.N#O#0 D a P#} 2 N#l D G.Q#;.;.1#R#            ",
"            S#;.;.T#;.;.;.;.;.;.;.;.;.;.;.;.;.;.;.U#            ",
"              V#} 2 '#} } } 1 1 1 1 1 1 1 } | | a               ",
"                                                                "};
