/* XPM */
static char * fileopen_xpm[] = {
"32 32 412 2",
"  	c None",
". 	c #000000",
"+ 	c #323536",
"@ 	c #CBDADF",
"# 	c #D3F2FF",
"$ 	c #D7E8EE",
"% 	c #BAC6CA",
"& 	c #D0F0FE",
"* 	c #C0E8FB",
"= 	c #B4D4E5",
"- 	c #D4E7F0",
"; 	c #1F1F1F",
"> 	c #828284",
", 	c #BABCBC",
"' 	c #8C9497",
") 	c #D4F0FB",
"! 	c #C5ECFF",
"~ 	c #AFD3E4",
"{ 	c #B2CAD6",
"] 	c #B8CFDA",
"^ 	c #D1E5EE",
"/ 	c #717173",
"( 	c #A2A4A5",
"_ 	c #E8E9EB",
": 	c #EFEFF0",
"< 	c #585D5E",
"[ 	c #D5EBF3",
"} 	c #C8EDFF",
"| 	c #B3D9ED",
"1 	c #B2CBD8",
"2 	c #B2C9D4",
"3 	c #ABC0CB",
"4 	c #8B9CA3",
"5 	c #9DA2A4",
"6 	c #F2F4F6",
"7 	c #D9D9DA",
"8 	c #CADADF",
"9 	c #CBEFFF",
"0 	c #B9E2F5",
"a 	c #AECAD8",
"b 	c #B4CAD6",
"c 	c #ACC2CD",
"d 	c #96A8B1",
"e 	c #878E91",
"f 	c #D0D2D3",
"g 	c #A8A8A8",
"h 	c #9EA8AB",
"i 	c #BFE7FA",
"j 	c #AECEDF",
"k 	c #B5CBD7",
"l 	c #AEC4CF",
"m 	c #9DB1BA",
"n 	c #828B92",
"o 	c #BABCBD",
"p 	c #F1F3F5",
"q 	c #F0F2F4",
"r 	c #EFF1F3",
"s 	c #363636",
"t 	c #D3EBF3",
"u 	c #C9EEFF",
"v 	c #C0E1F1",
"w 	c #D2EAF4",
"x 	c #C0D0D6",
"y 	c #D3EFFB",
"z 	c #B0C6D1",
"A 	c #A6BBC6",
"B 	c #7E8A8F",
"C 	c #A9ABAE",
"D 	c #EDEFF1",
"E 	c #E9EBED",
"F 	c #E3E5E6",
"G 	c #CFE1E7",
"H 	c #CAEEFF",
"I 	c #B6DCEF",
"J 	c #B4D1E0",
"K 	c #C0D8E4",
"L 	c #C3DAE6",
"M 	c #C5DEEB",
"N 	c #B7D7E8",
"O 	c #B2C8D3",
"P 	c #A9BFC9",
"Q 	c #86979E",
"R 	c #989C9D",
"S 	c #E9EAEC",
"T 	c #E3E5E7",
"U 	c #DCDEE0",
"V 	c #C3C5C5",
"W 	c #C0C8CA",
"X 	c #E8F8FE",
"Y 	c #C1C8CA",
"Z 	c #C4D1D6",
"` 	c #CFEFFE",
" .	c #BCE4F7",
"..	c #B1D1E1",
"+.	c #BED6E2",
"@.	c #BED5E1",
"#.	c #B9D0DC",
"$.	c #B3CAD5",
"%.	c #ACC1CC",
"&.	c #95A7B0",
"*.	c #82878A",
"=.	c #DDDEE0",
"-.	c #EEF0F2",
";.	c #D9DBDD",
">.	c #CFD1D2",
",.	c #AFB0B2",
"'.	c #B1B6B8",
").	c #ECF4F8",
"!.	c #E4F6FF",
"~.	c #D9F2FF",
"{.	c #D0EEFA",
"].	c #D1F1FF",
"^.	c #ADCFE1",
"/.	c #BBD4E1",
"(.	c #BDD5E0",
"_.	c #BAD1DD",
":.	c #9CB0B9",
"<.	c #7C868A",
"[.	c #C5C7C8",
"}.	c #EBEDEF",
"|.	c #E5E7E8",
"1.	c #B7B8BA",
"2.	c #8E9193",
"3.	c #BDC0C2",
"4.	c #DEF5FF",
"5.	c #E8F7FF",
"6.	c #C9EDFF",
"7.	c #B4DDF0",
"8.	c #B9CBD0",
"9.	c #CCEFFF",
"0.	c #A6BECA",
"a.	c #BFD7E3",
"b.	c #BBD2DE",
"c.	c #B6CDD8",
"d.	c #AFC5D0",
"e.	c #798387",
"f.	c #B4B7B8",
"g.	c #ECEEF0",
"h.	c #E0E2E4",
"i.	c #D4D5D7",
"j.	c #C5C7C9",
"k.	c #8B8D8D",
"l.	c #A6ADAF",
"m.	c #DDEDF5",
"n.	c #DEF4FF",
"o.	c #C7ECFF",
"p.	c #AFDDF5",
"q.	c #9ECADF",
"r.	c #C4E0EC",
"s.	c #A5BDC8",
"t.	c #BCD4E0",
"u.	c #B8D0DB",
"v.	c #A9BEC8",
"w.	c #808E95",
"x.	c #A3A6A8",
"y.	c #E2E4E6",
"z.	c #D7D9DB",
"A.	c #CACCCD",
"B.	c #A4A6A7",
"C.	c #858A8C",
"D.	c #D1E2E9",
"E.	c #DBF3FF",
"F.	c #DFF4FF",
"G.	c #B3E1F9",
"H.	c #A9D7EF",
"I.	c #98C5DB",
"J.	c #B2D6E6",
"K.	c #727A7D",
"L.	c #CAEDFD",
"M.	c #A2BAC5",
"N.	c #B5CCD7",
"O.	c #ADC3CE",
"P.	c #A2B6C0",
"Q.	c #878F92",
"R.	c #EAECEE",
"S.	c #DBDDDF",
"T.	c #CED0D1",
"U.	c #B5B5B7",
"V.	c #838485",
"W.	c #C6D0D4",
"X.	c #D8F2FF",
"Y.	c #CFEEFF",
"Z.	c #B9E7FF",
"`.	c #9ECCE4",
" +	c #8DBBD3",
".+	c #A0CEE6",
"++	c #A0C9DD",
"@+	c #B3C2C7",
"#+	c #C7E9F9",
"$+	c #9DB4BF",
"%+	c #AABFCA",
"&+	c #9DB0BA",
"*+	c #728187",
"=+	c #C7C8CA",
"-+	c #E7E9EA",
";+	c #DEE0E2",
">+	c #D3D4D6",
",+	c #BEC0C2",
"'+	c #8F9192",
")+	c #A6AAAB",
"!+	c #EBF8FF",
"~+	c #D4F1FF",
"{+	c #BDE8FF",
"]+	c #ADDBF3",
"^+	c #9AC8E0",
"/+	c #91BFD7",
"(+	c #98C6DE",
"_+	c #9AC5DB",
":+	c #C4DEE8",
"<+	c #C3E5F4",
"[+	c #95ABB5",
"}+	c #9BAEB8",
"|+	c #8798A0",
"1+	c #51595D",
"2+	c #E1E3E5",
"3+	c #D6D8DA",
"4+	c #C8CACC",
"5+	c #989A9B",
"6+	c #969D9E",
"7+	c #D9E4E9",
"8+	c #D7F2FF",
"9+	c #CCEDFF",
"0+	c #B0DEF6",
"a+	c #9BC9E1",
"b+	c #95C3DB",
"c+	c #97C5DD",
"d+	c #93C1D9",
"e+	c #96C3DA",
"f+	c #B3D6E6",
"g+	c #535A5C",
"h+	c #BDDDEC",
"i+	c #8B9FAA",
"j+	c #8A9BA4",
"k+	c #6F7D84",
"l+	c #777B7D",
"m+	c #E4E6E8",
"n+	c #DADCDE",
"o+	c #CDCFD0",
"p+	c #ADAEB0",
"q+	c #8A8B8D",
"r+	c #CAD1D4",
"s+	c #E1F5FF",
"t+	c #E2F5FF",
"u+	c #B8E6FE",
"v+	c #99C7DF",
"w+	c #8FBDD5",
"x+	c #90BED6",
"y+	c #94C2D9",
"z+	c #9DC6D9",
"A+	c #A5B3B8",
"B+	c #B6D5E3",
"C+	c #82949E",
"D+	c #798890",
"E+	c #5A666B",
"F+	c #97999A",
"G+	c #D2D3D5",
"H+	c #BDBEC0",
"I+	c #ADB3B5",
"J+	c #F1FAFF",
"K+	c #E1F4FF",
"L+	c #C3EAFF",
"M+	c #B1DFF7",
"N+	c #9CCAE2",
"O+	c #85B3CB",
"P+	c #9EC9DE",
"Q+	c #BED6E0",
"R+	c #AECCDA",
"S+	c #788992",
"T+	c #69777D",
"U+	c #383F44",
"V+	c #CDCED0",
"W+	c #C7C9CB",
"X+	c #929394",
"Y+	c #9EA3A5",
"Z+	c #DDEDF4",
"`+	c #CDEEFF",
" @	c #A7D5ED",
".@	c #8CBAD2",
"+@	c #8BB9D1",
"@@	c #81AFC7",
"#@	c #8EBAD0",
"$@	c #B6D8E6",
"%@	c #313435",
"&@	c #A6C3D0",
"*@	c #6F7F87",
"=@	c #5D686E",
"-@	c #3E4445",
";@	c #AEAFB1",
">@	c #878788",
",@	c #D1DADE",
"'@	c #E5F6FF",
")@	c #E0F4FF",
"!@	c #A6D4EC",
"~@	c #A1CFE7",
"{@	c #86B4CC",
"]@	c #8BB7CE",
"^@	c #99C2D6",
"/@	c #BAD7E3",
"(@	c #6B7478",
"_@	c #9EBAC6",
":@	c #66747C",
"<@	c #525C61",
"[@	c #707275",
"}@	c #CCCECF",
"|@	c #B1B3B4",
"1@	c #636566",
"2@	c #ADCFDD",
"3@	c #DAF3FF",
"4@	c #C1E9FF",
"5@	c #A4D2EA",
"6@	c #92C0D8",
"7@	c #A2D0E8",
"8@	c #80AEC6",
"9@	c #85B2C9",
"0@	c #9BC5DA",
"a@	c #B0D3E3",
"b@	c #A8BAC0",
"c@	c #96AFBB",
"d@	c #5E6B72",
"e@	c #454D52",
"f@	c #B3B5B6",
"g@	c #696A6A",
"h@	c #8FA8B3",
"i@	c #86B1C7",
"j@	c #84B2CA",
"k@	c #8AB7CF",
"l@	c #9FC6D9",
"m@	c #B6CBD3",
"n@	c #2E3132",
"o@	c #8EA6B1",
"p@	c #566269",
"q@	c #2D3337",
"r@	c #7E7E7F",
"s@	c #758085",
"t@	c #8DB7CB",
"u@	c #82AFC7",
"v@	c #96C4DC",
"w@	c #8EBBD3",
"x@	c #8CB8CF",
"y@	c #94BDD1",
"z@	c #C4DCE7",
"A@	c #6B7477",
"B@	c #869DA7",
"C@	c #4F5B61",
"D@	c #404447",
"E@	c #959697",
"F@	c #565B5C",
"G@	c #93B9CA",
"H@	c #76A3BA",
"I@	c #89B7CF",
"J@	c #7FADC5",
"K@	c #86B3CA",
"L@	c #92BCD1",
"M@	c #B1D2E0",
"N@	c #9DACB2",
"O@	c #7F959F",
"P@	c #4C565C",
"Q@	c #595B5D",
"R@	c #575859",
"S@	c #94AFBB",
"T@	c #77A3B9",
"U@	c #94C2DA",
"V@	c #87B4CC",
"W@	c #98C4D9",
"X@	c #9FC6D8",
"Y@	c #B5C7CD",
"Z@	c #2D3031",
"`@	c #7D929C",
" #	c #4D595E",
".#	c #575758",
"+#	c #83949A",
"@#	c #86B0C5",
"##	c #74A2B9",
"$#	c #88B6CE",
"%#	c #92BFD7",
"&#	c #92BED4",
"*#	c #A5CDE0",
"=#	c #BDD7E2",
"-#	c #515759",
";#	c #8298A2",
">#	c #68787F",
",#	c #87AEC0",
"'#	c #719EB5",
")#	c #8CB9D0",
"!#	c #9CC5D9",
"~#	c #BBDBE7",
"{#	c #7F8B8F",
"]#	c #8FA6B0",
"^#	c #67767D",
"/#	c #93B6C5",
"(#	c #6692A9",
"_#	c #7AA8C0",
":#	c #92BFD6",
"<#	c #92BDD3",
"[#	c #A4C9DA",
"}#	c #B7C9CF",
"|#	c #A4B1B5",
"1#	c #A2BCC6",
"2#	c #739FB4",
"3#	c #5D8AA2",
"4#	c #88B4CA",
"5#	c #A3CBDD",
"6#	c #BAD0DA",
"7#	c #52595B",
"8#	c #9EC5D6",
"9#	c #6491A7",
"0#	c #9FC8DC",
"a#	c #BDD9E6",
"b#	c #838E92",
"c#	c #9AAEB7",
"d#	c #B4D5E3",
"e#	c #AFBFC5",
"                                            .                   ",
"                                        + @ # $                 ",
"                                      % & * = - . ; > ,         ",
"                                  ' ) ! ~ { ] ^ / ( _ :         ",
"                              < [ } | 1 2 3 4 5 _ 6 6 7         ",
"                          + 8 9 0 a b c d e f 6 6 6 6 g         ",
"              h %       % & i j k l m n o 6 6 6 p q r s         ",
"          ' t u v w x y ! ~ { z A B C 6 6 6 p r D E F           ",
"      < G H I J K L M N 1 O P Q R _ 6 6 p r D S T U V   W X Y   ",
"    Z `  ...K K +.@.#.$.%.&.*.=.6 6 6 q -.E T ;.>.,.'.).!.~.{.. ",
"  . ].^./.K +.(._.k l :.<.[.6 6 6 p r }.|.U f 1.2.3.4.5.6.7.8.  ",
"  . 9.0.a.@.b.c.d.A e.f.6 6 6 p r g._ h.i.j.k.l.m.n.o.p.q.r.    ",
"  . 9.s.t.u.O v.w.x._ 6 6 6 q D S y.z.A.B.C.D.E.F.G.H.I.J.K.    ",
"  . L.M.N.O.P.Q.=.6 6 6 p r R.|.S.T.U.V.W.X.Y.Z.`. +.+++@+      ",
"  . #+$+%+&+*+=+6 6 p r g.-+;+>+,+'+)+!+~+{+]+^+/+(+_+:+        ",
"  . <+[+}+|+1+6 6 q D S 2+3+4+5+6+7+8+9+0+a+b+c+d+e+f+g+        ",
"  . h+i+j+k+l+q -.R.m+n+o+p+q+r+s+t+u+v+(+c+w+x+y+z+A+          ",
"  . B+C+D+E+F+}.-+;+G+H+q+I+J+K+L+M+.+N+c+d+O+ +P+Q+            ",
"  . R+S+T+U+V+y.3+W+X+Y+Z+s+`+0+ @.@a+O++@@@@@#@$@%@            ",
"  . &@*@=@-@;+f ;@>@,@'@)@G.!@~@`./+{@w+d+]@^@/@(@              ",
"  . _@:@<@[@}@|@1@2@3@4@5@6@7@v+d++@8@9@0@a@b@.                 ",
"  . c@d@e@'+f@g@h@i@(+`.(+N+j@6@v+k@#@l@m@n@.                   ",
"  . o@p@q@p+r@s@t@u@v+v@w+ +.@w@x@y@z@A@. .                     ",
"  . B@C@D@E@F@G@H@a+^+N+I@J@K@L@M@N@. .                         ",
"  . O@P@Q@R@S@T@I@a+U@v+V@W@X@Y@Z@.                             ",
"  . `@ #.#+#@###N+$#%#&#*#=#-#. .                               ",
"  . ;#p@>#,#'#x+v@)#!#~#{#. .                                   ",
"  . ]#^#/#(#_#:#<#[#}#.                                         ",
"    |#1#2#3#4#5#6#7#                                            ",
"    . 8#9#0#a#b#                                                ",
"      c#d#e#                                                    ",
"        .                                                       "};
