/* XPM */
static const char *next_xpm[] = {
/* columns rows colors chars-per-pixel */
"32 32 163 2",
"   c None",
".  c #0C121B",
"X  c #0E151C",
"o  c #111723",
"O  c #121723",
"+  c #111A26",
"@  c #172334",
"#  c #203048",
"$  c #2C3E5A",
"%  c #2E3E5E",
"&  c #2C4364",
"*  c #314562",
"=  c #324464",
"-  c #334968",
";  c #354A69",
":  c #384F71",
">  c #3C4B78",
",  c #365179",
"<  c #395072",
"1  c #3C5278",
"2  c #3C537A",
"3  c #3E557C",
"4  c #3F567E",
"5  c #3F577F",
"6  c #3B4E80",
"7  c #395580",
"8  c #3D5780",
"9  c #3F5880",
"0  c #405780",
"q  c #405880",
"w  c #576A8C",
"e  c #536B93",
"r  c #3280FF",
"t  c #3682FF",
"y  c #3984FF",
"u  c #3A85FF",
"i  c #3F87FF",
"p  c #6C81A5",
"a  c #4289FF",
"s  c #438AFF",
"d  c #458CFF",
"f  c #478CFF",
"g  c #4C8FFF",
"h  c #4F92FF",
"j  c #5093FF",
"k  c #5193FF",
"l  c #5294FF",
"z  c #5696FF",
"x  c #5796FF",
"c  c #5998FF",
"v  c #5A99FF",
"b  c #5F9BFF",
"n  c #5F9CFF",
"m  c #7292C5",
"M  c #609BFF",
"N  c #609CFF",
"B  c #619DFF",
"V  c #669FFF",
"C  c #67A0FF",
"Z  c #68A1FF",
"A  c #69A1FF",
"S  c #6CA4FF",
"D  c #6DA4FF",
"F  c #6FA5FF",
"G  c #6FA6FF",
"H  c #71A6FF",
"J  c #76AAFF",
"K  c #7AACFF",
"L  c #7CAEFF",
"P  c #7FAFFF",
"I  c #809BC5",
"U  c #869DC5",
"Y  c #879EC5",
"T  c #889FC5",
"R  c #899FC5",
"E  c #8AA0C5",
"W  c #8BA1C5",
"Q  c #8FA3C5",
"!  c #91A5C5",
"~  c #93A6C5",
"^  c #97A9C5",
"/  c #99AAC6",
"(  c #9AABC6",
")  c #9BACC6",
"_  c #9FADC5",
"`  c #9FADC6",
"'  c #80B0FF",
"]  c #82B2FF",
"[  c #86B3FF",
"{  c #86B4FF",
"}  c #87B4FF",
"|  c #88B5FF",
" . c #8BB6FF",
".. c #8DB8FF",
"X. c #8DB9FF",
"o. c #8EB8FF",
"O. c #8EB9FF",
"+. c #8FB9FF",
"@. c #92BBFF",
"#. c #93BDFF",
"$. c #94BCFF",
"%. c #98BEFF",
"&. c #A3AEC1",
"*. c #A2AEC2",
"=. c #A2AEC3",
"-. c #A1AEC6",
";. c #A3AFC4",
":. c #A4AFC1",
">. c #A3B0C5",
",. c #A3B1C4",
"<. c #A4B0C1",
"1. c #A4B0C4",
"2. c #9AC0FF",
"3. c #9EC2FF",
"4. c #9FC3FF",
"5. c #A0C4FF",
"6. c #A1C4FF",
"7. c #A1C5FF",
"8. c #A2C5FF",
"9. c #A2C6FF",
"0. c #A6C7FF",
"q. c #A9CAFF",
"w. c #ABCBFF",
"e. c #ACCCFF",
"r. c #ADCCFF",
"t. c #AECCFF",
"y. c #AECDFF",
"u. c #AFCDFF",
"i. c #B1CFFF",
"p. c #B4D0FF",
"a. c #B6D2FF",
"s. c #B7D2FF",
"d. c #BAD4FF",
"f. c #BBD4FF",
"g. c #BBD5FF",
"h. c #BBD6FF",
"j. c #BED6FF",
"k. c #BED7FF",
"l. c #BFD7FF",
"z. c #BFD8FF",
"x. c #C1D9FF",
"c. c #C6DCFF",
"v. c #C7DCFF",
"b. c #C7DDFF",
"n. c #CADEFF",
"m. c #CCE0FF",
"M. c #CFE2FF",
"N. c #D0E1FF",
"B. c #D0E2FF",
"V. c #D3E4FF",
"C. c #D5E5FF",
"Z. c #D8E7FF",
"A. c #D9E8FF",
"S. c #DFEBFF",
"D. c #DFECFF",
"F. c #E0ECFF",
"G. c #E6F0FF",
"H. c #E7F0FF",
"J. c #EAF2FF",
"K. c #F0F6FF",
"L. c #F1F6FF",
"P. c #FAFCFF",
"I. c None",
/* pixels */
"I.I.I.I.I.I.I.I.I.I.I.I.I.I.I.I.I.I.I.I.I.I.I.I.I.I.I.I.I.I.I.I.",
"I.I.I.I.I.I.I.I.I.I.I.I.I.I.I.I.I.I.I.I.I.I.I.I.I.I.I.I.I.I.I.I.",
"I.I.I.I.I.I.I.I.I.I.I.I.I.6 I.I.I.I.I.I.I.I.I.I.I.I.I.I.I.I.I.I.",
"I.I.I.I.I.I.I.I.I.I.I.I.6 e 4 > I.I.I.I.I.I.I.I.I.I.I.I.I.I.I.I.",
"I.I.I.I.I.I.I.I.I.I.I.I.8 U U 8 > I.I.I.I.I.I.I.I.I.I.I.I.I.I.I.",
"I.I.I.I.I.I.I.I.I.I.I.I.9 U x.U 0 > I.I.I.I.I.I.I.I.I.I.I.I.I.I.",
"I.I.I.I.I.I.I.I.I.I.I.I.9 Y { { U 0 > I.I.I.I.I.I.I.I.I.I.I.I.I.",
"I.I.I.I.I.I.I.I.I.I.I.I.q Y F l J Y 0 > I.I.I.I.I.I.I.I.I.I.I.I.",
"I.I.I.I.I.I.I.I.I.I.I.I.9 E A u f P Y 0 > I.I.I.I.I.I.I.I.I.I.I.",
"I.I.I.I.I.I.I.I.I.I.I.I.9 I V u r k ] E 0 > I.I.I.I.I.I.I.I.I.I.",
"I.I.I.I.I.I.I.0 q q q q q m N i r i c  .W 0 > I.I.I.I.I.I.I.I.I.",
"I.I.I.I.I.I.I.q N.p.5.2. .H x f s s g V @.Q 0 > I.I.I.I.I.I.I.I.",
"I.I.I.I.I.I.I.q d.{ F S V b z l h k l c H 2.! 0 > I.I.I.I.I.I.I.",
"I.I.I.I.I.I.I.q u.K N N b n N N N M N N A P e.~ 0 I.I.I.I.I.I.I.",
"I.I.I.I.I.I.I.q p.} F F F F F F F F H F H P 9.C.p 8 I.I.I.I.I.I.",
"I.I.I.I.I.I.I.q x.$.P P P P P P P P P P [ %.g.( 0 I.I.I.I.I.I.I.",
"I.I.I.I.I.I.I.q b.5. .O.@. .@. . . .@.@.5.g.` 0 7 I.I.I.I.I.I.I.",
"I.I.I.I.I.I.I.q Z.h.i.u.q.0.5.4.5.5.5.i.b.) 0 7 I.I.I.I.I.I.I.I.",
"I.I.I.I.I.I.I.q J.D.C.M.m.x.p.u.u.p.h.M.` 0 7 I.I.I.I.I.I.I.I.I.",
"I.I.I.I.I.I.I.q q 9 q 9 5 ^ n.z.g.b.Z.>.0 , I.I.I.I.I.I.I.I.I.I.",
"I.I.I.I.I.              1 -.Z.N.M.F.>.4 &         I.I.I.I.I.I.I.",
"I.I.I.I.                < :.G.F.H.,.1 #             I.I.I.I.I.I.",
"I.I.I.                  ; ,.L.L.,.< @               I.I.I.I.I.I.",
"I.I.                    & &.P.<.- +                   I.I.I.I.I.",
"I.I.                    % :.&.= X                     I.I.I.I.I.",
"I.I.                    O w $ .                       I.I.I.I.I.",
"I.I.                      O                           I.I.I.I.I.",
"I.I.                                                  I.I.I.I.I.",
"I.I.                                                  I.I.I.I.I.",
"I.I.I.                                              I.I.I.I.I.I.",
"I.I.I.I.                                            I.I.I.I.I.I.",
"I.I.I.I.I.                                        I.I.I.I.I.I.I."
};
