/* XPM */
static char * pause_xpm[] = {
"24 24 275 2",
"  	c None",
". 	c #68B75C",
"+ 	c #7FCF6E",
"@ 	c #79CA6A",
"# 	c #77CA6A",
"$ 	c #75C96A",
"% 	c #75CC6C",
"& 	c #5DAB53",
"* 	c #80D170",
"= 	c #79CB6B",
"- 	c #78CE6D",
"; 	c #5EA454",
"> 	c #9AF483",
", 	c #93F77C",
"' 	c #90F27B",
") 	c #8DF07B",
"! 	c #89EE7A",
"~ 	c #91FA84",
"{ 	c #62AC5C",
"] 	c #93ED7F",
"^ 	c #95F97E",
"/ 	c #90F37C",
"( 	c #8DF17B",
"_ 	c #8AEE7B",
": 	c #8DF680",
"< 	c #76CC6F",
"[ 	c #5DA453",
"} 	c #8FEB7C",
"| 	c #89EC77",
"1 	c #86E877",
"2 	c #83E777",
"3 	c #81E577",
"4 	c #87EF7F",
"5 	c #5DA659",
"6 	c #8AE579",
"7 	c #8BEE78",
"8 	c #87E977",
"9 	c #84E777",
"0 	c #84EB7B",
"a 	c #6FC36A",
"b 	c #59A252",
"c 	c #8AE87C",
"d 	c #85E977",
"e 	c #82E677",
"f 	c #80E477",
"g 	c #7EE377",
"h 	c #85ED7F",
"i 	c #5BA458",
"j 	c #86E279",
"k 	c #88EB79",
"l 	c #83E678",
"m 	c #7FE377",
"n 	c #82EA7B",
"o 	c #6EC26A",
"p 	c #58A151",
"q 	c #87E57D",
"r 	c #7EE277",
"s 	c #7CE177",
"t 	c #83EC80",
"u 	c #5AA459",
"v 	c #83E079",
"w 	c #84E979",
"x 	c #7DE277",
"y 	c #81E87D",
"z 	c #6CC06B",
"A 	c #559F50",
"B 	c #84E37C",
"C 	c #80E478",
"D 	c #7EE278",
"E 	c #7CE179",
"F 	c #7CE079",
"G 	c #83EA81",
"H 	c #59A359",
"I 	c #80DE78",
"J 	c #81E779",
"K 	c #7DE179",
"L 	c #80E77E",
"M 	c #6BC06B",
"N 	c #539E50",
"O 	c #82E17D",
"P 	c #7EE379",
"Q 	c #7CE07A",
"R 	c #7BDF7A",
"S 	c #83E982",
"T 	c #7EDD79",
"U 	c #80E57A",
"V 	c #80E67F",
"W 	c #6BBF6C",
"X 	c #529E50",
"Y 	c #81E07D",
"Z 	c #7CE17A",
"` 	c #7CDF7A",
" .	c #7BDE7B",
"..	c #84E985",
"+.	c #5AA35A",
"@.	c #7DDB79",
"#.	c #7EE37B",
"$.	c #7CDF7B",
"%.	c #7CDE7C",
"&.	c #81E681",
"*.	c #6CBF6C",
"=.	c #509C4F",
"-.	c #7FDE7D",
";.	c #7CE07B",
">.	c #7CDF7C",
",.	c #7CDE7D",
"'.	c #7DDF7E",
").	c #88EB88",
"!.	c #5CA35B",
"~.	c #7CDA79",
"{.	c #7FE27D",
"].	c #7DDF7C",
"^.	c #7DDF7D",
"/.	c #85E785",
"(.	c #6FC16F",
"_.	c #4F9C4F",
":.	c #80DE7F",
"<.	c #7DE07D",
"[.	c #7DDE7D",
"}.	c #7EDF7F",
"|.	c #81E081",
"1.	c #8EED8D",
"2.	c #5FA55E",
"3.	c #7BD97B",
"4.	c #7FE27E",
"5.	c #7EDE7E",
"6.	c #81E082",
"7.	c #85E185",
"8.	c #8EEA8D",
"9.	c #74C272",
"0.	c #4F9B50",
"a.	c #80DE80",
"b.	c #7EE07F",
"c.	c #80E080",
"d.	c #84E183",
"e.	c #8AE389",
"f.	c #96F092",
"g.	c #60A65D",
"h.	c #58D058",
"i.	c #48D349",
"j.	c #4CD34C",
"k.	c #53D553",
"l.	c #61D95E",
"m.	c #79E675",
"n.	c #71C26E",
"o.	c #82DE82",
"p.	c #83E283",
"q.	c #8AE388",
"r.	c #8AE387",
"s.	c #77DF72",
"t.	c #67E75E",
"u.	c #4FA349",
"v.	c #4FCE50",
"w.	c #3DD23D",
"x.	c #42D140",
"y.	c #44D340",
"z.	c #46D441",
"A.	c #4EDF45",
"B.	c #59BF52",
"C.	c #509C51",
"D.	c #87E087",
"E.	c #8DE58B",
"F.	c #7AE076",
"G.	c #5ADA53",
"H.	c #4ED844",
"I.	c #5AE74C",
"J.	c #51A54A",
"K.	c #54D053",
"L.	c #44D541",
"M.	c #49D445",
"N.	c #4DD746",
"O.	c #51D948",
"P.	c #59E34C",
"Q.	c #5EC154",
"R.	c #549D54",
"S.	c #8AE288",
"T.	c #68DE62",
"U.	c #4DD744",
"V.	c #52DA46",
"W.	c #59DD4B",
"X.	c #66EC53",
"Y.	c #56A74C",
"Z.	c #57D154",
"`.	c #4AD743",
" +	c #4FD747",
".+	c #54DA48",
"++	c #61E74F",
"@+	c #64C456",
"#+	c #4E9C4C",
"$+	c #62D95C",
"%+	c #4DDA43",
"&+	c #57DC4A",
"*+	c #5DDF4D",
"=+	c #62E24F",
"-+	c #6FF158",
";+	c #5AA94E",
">+	c #5CD457",
",+	c #50DB46",
"'+	c #5CDE4C",
")+	c #61E14F",
"!+	c #6AEC53",
"~+	c #69C759",
"{+	c #4B9D47",
"]+	c #5EDB53",
"^+	c #58DE4A",
"/+	c #5FE04E",
"(+	c #65E450",
"_+	c #6BE752",
":+	c #79F65C",
"<+	c #5FAC50",
"[+	c #61D758",
"}+	c #58DF4A",
"|+	c #5EE04E",
"1+	c #64E350",
"2+	c #6AE652",
"3+	c #75F258",
"4+	c #70CB5C",
"5+	c #4F9F49",
"6+	c #67DF58",
"7+	c #61E34D",
"8+	c #69E551",
"9+	c #6FE854",
"0+	c #75EC57",
"a+	c #85FC60",
"b+	c #65AF52",
"c+	c #67DA5B",
"d+	c #61E44D",
"e+	c #68E551",
"f+	c #6EE853",
"g+	c #74EB56",
"h+	c #7FF85C",
"i+	c #77CC5F",
"j+	c #53A04B",
"k+	c #6EE35B",
"l+	c #6AE852",
"m+	c #72EB56",
"n+	c #79EE59",
"o+	c #7FF25C",
"p+	c #90FF66",
"q+	c #6BB155",
"r+	c #6EDE5E",
"s+	c #6AE952",
"t+	c #71EA56",
"u+	c #78EE58",
"v+	c #7EF15B",
"w+	c #8BFE61",
"x+	c #7FCF62",
"y+	c #59A94F",
"z+	c #7DF164",
"A+	c #77F457",
"B+	c #7FF65B",
"C+	c #87FA5E",
"D+	c #8EFF61",
"E+	c #A1FF6D",
"F+	c #75B85B",
"G+	c #7CEB66",
"H+	c #77F557",
"I+	c #7EF65B",
"J+	c #86FA5E",
"K+	c #8DFD61",
"L+	c #9CFF68",
"M+	c #8BD86A",
"N+	c #66B656",
"O+	c #81DD65",
"P+	c #82DB65",
"Q+	c #88DD67",
"R+	c #8EE06A",
"S+	c #94DD70",
"T+	c #3B6331",
"U+	c #589F4B",
"V+	c #81DD66",
"W+	c #87DD67",
"X+	c #8DDF69",
"Y+	c #96DF70",
"Z+	c #518242",
"                                                ",
"                                                ",
"      . + @ # $ %           & * = # $ -         ",
"    ; > , ' ) ! ~ {         ] ^ / ( _ : <       ",
"    [ } | 1 2 3 4 5         6 7 8 9 3 0 a       ",
"    b c d e f g h i         j k l 3 m n o       ",
"    p q e f r s t u         v w f m x y z       ",
"    A B C D E F G H         I J D K F L M       ",
"    N O P E Q R S H         T U F Q R V W       ",
"    X Y Z ` R  ...+.        @.#.` $.%.&.*.      ",
"    =.-.;.>.,.'.).!.        ~.{.].^.'./.(.      ",
"    _.:.<.[.}.|.1.2.        3.4.5.6.7.8.9.      ",
"    0.a.b.c.d.e.f.g.        h.i.j.k.l.m.n.      ",
"    0.o.p.q.r.s.t.u.        v.w.x.y.z.A.B.      ",
"    C.D.E.F.G.H.I.J.        K.L.M.N.O.P.Q.      ",
"    R.S.T.U.V.W.X.Y.        Z.`. +.+W.++@+      ",
"    #+$+%+&+*+=+-+;+        >+,+&+'+)+!+~+      ",
"    {+]+^+/+(+_+:+<+        [+}+|+1+2+3+4+      ",
"    5+6+7+8+9+0+a+b+        c+d+e+f+g+h+i+      ",
"    j+k+l+m+n+o+p+q+        r+s+t+u+v+w+x+      ",
"    y+z+A+B+C+D+E+F+        G+H+I+J+K+L+M+      ",
"      N+O+P+Q+R+S+T+        U+V+P+W+X+Y+Z+      ",
"                                                ",
"                                                "};
