/* XPM */
static char * play_xpm[] = {
"24 24 366 2",
"  	c None",
". 	c #2242E0",
"+ 	c #2E50E2",
"@ 	c #2C4DE3",
"# 	c #1938D1",
"$ 	c #2F4ED5",
"% 	c #5372E5",
"& 	c #718FF1",
"* 	c #98AFF2",
"= 	c #A1B5F2",
"- 	c #A0B4F2",
"; 	c #8EA6F2",
"> 	c #5F7FEF",
", 	c #4665DE",
"' 	c #17309C",
") 	c #1A38BD",
"! 	c #5778EC",
"~ 	c #8FA8F3",
"{ 	c #A6BCF4",
"] 	c #A9C0F4",
"^ 	c #A7BFF4",
"/ 	c #A6BFF4",
"( 	c #AAC0F4",
"_ 	c #A2B8F5",
": 	c #7A98F9",
"< 	c #395DE5",
"[ 	c #2046DD",
"} 	c #6C8CF1",
"| 	c #97B1F1",
"1 	c #96B3F2",
"2 	c #92B2F3",
"3 	c #92B5F4",
"4 	c #92B6F4",
"5 	c #92B7F4",
"6 	c #92B4F3",
"7 	c #95B3F2",
"8 	c #9CB6F2",
"9 	c #90AAF3",
"0 	c #496FF7",
"a 	c #0A2288",
"b 	c #1A41E0",
"c 	c #6B8CEE",
"d 	c #89A7EF",
"e 	c #83A7F1",
"f 	c #7CA7F1",
"g 	c #7AA9F1",
"h 	c #7DAFF4",
"i 	c #82B5F6",
"j 	c #82B4F5",
"k 	c #83B2F4",
"l 	c #84AFF3",
"m 	c #84AAF1",
"n 	c #87A9F0",
"o 	c #8AA7F0",
"p 	c #436BF5",
"q 	c #021B86",
"r 	c #0728B6",
"s 	c #5278EF",
"t 	c #799BED",
"u 	c #729CEF",
"v 	c #6FA0F0",
"w 	c #A8C7F5",
"x 	c #C2D9F6",
"y 	c #8BB9ED",
"z 	c #68ABF1",
"A 	c #70B3F9",
"B 	c #75B6F9",
"C 	c #74B3F8",
"D 	c #73B0F6",
"E 	c #73ACF4",
"F 	c #74A7F3",
"G 	c #74A2F1",
"H 	c #779DEE",
"I 	c #7898EE",
"J 	c #2C56EF",
"K 	c #2954EC",
"L 	c #668BEA",
"M 	c #6290ED",
"N 	c #6197F0",
"O 	c #609DEE",
"P 	c #D9E8F9",
"Q 	c #FCFFFF",
"R 	c #ECF5FC",
"S 	c #B7D7F3",
"T 	c #6BB2EE",
"U 	c #4DA9F4",
"V 	c #59B0FB",
"W 	c #63B1FA",
"X 	c #66ACF7",
"Y 	c #65A6F4",
"Z 	c #649EF2",
"` 	c #6597EE",
" .	c #6991EC",
"..	c #5C82F0",
"+.	c #0D32C3",
"@.	c #082ABE",
"#.	c #446EEB",
"$.	c #5583E9",
"%.	c #528AED",
"&.	c #5294F1",
"*.	c #5099EE",
"=.	c #CDE3F8",
"-.	c #EEF8FF",
";.	c #E8F6FF",
">.	c #F0FAFF",
",.	c #DCEFFB",
"'.	c #82C1EC",
").	c #2B9CEC",
"!.	c #1995F5",
"~.	c #3CA0FA",
"{.	c #4FA1F7",
"].	c #569CF3",
"^.	c #5592F0",
"/.	c #5588EC",
"(.	c #5A83E9",
"_.	c #2D59F1",
":.	c #163FDA",
"<.	c #4470E7",
"[.	c #427AE9",
"}.	c #4386ED",
"|.	c #3F8FF2",
"1.	c #2989ED",
"2.	c #C0DDF7",
"3.	c #EDF8FF",
"4.	c #E6F5FF",
"5.	c #E9F7FF",
"6.	c #F4FCFF",
"7.	c #D1E9F8",
"8.	c #5FB2EA",
"9.	c #138DEC",
"0.	c #1288F3",
"a.	c #3591F5",
"b.	c #468EF0",
"c.	c #4683EC",
"d.	c #497AE8",
"e.	c #3966EF",
"f.	c #05229D",
"g.	c #1C49E6",
"h.	c #3467E4",
"i.	c #3374E9",
"j.	c #2F7EED",
"k.	c #1E81F2",
"l.	c #1787EE",
"m.	c #C0E0F8",
"n.	c #EDF9FF",
"o.	c #ECF8FF",
"p.	c #F3FBFF",
"q.	c #B8DBF4",
"r.	c #55A5E8",
"s.	c #0F7BE7",
"t.	c #1F7CEE",
"u.	c #367DED",
"v.	c #3871E7",
"w.	c #3665E9",
"x.	c #0E35C7",
"y.	c #1A4AEA",
"z.	c #245DE3",
"A.	c #236BE8",
"B.	c #1C75ED",
"C.	c #1A82F3",
"D.	c #198CF0",
"E.	c #C0E1F9",
"F.	c #EFFAFF",
"G.	c #EEF8FE",
"H.	c #AFD0F0",
"I.	c #3D87E0",
"J.	c #1C6EE7",
"K.	c #2768E7",
"L.	c #265BE5",
"M.	c #103AD4",
"N.	c #041D91",
"O.	c #1849EA",
"P.	c #1E5BE2",
"Q.	c #1D68E8",
"R.	c #1C76ED",
"S.	c #1B84F4",
"T.	c #1A8EF1",
"U.	c #C1E2F9",
"V.	c #EEF9FF",
"W.	c #E7F6FF",
"X.	c #FAFFFF",
"Y.	c #D8E6F3",
"Z.	c #1F68D4",
"`.	c #1B62E7",
" +	c #1F56E3",
".+	c #103BD9",
"++	c #041C8C",
"@+	c #174AEA",
"#+	c #1E5AE2",
"$+	c #1D86F4",
"%+	c #2193F1",
"&+	c #C4E4F9",
"*+	c #E8F7FF",
"=+	c #EBF9FF",
"-+	c #F4FEFF",
";+	c #D9E7F3",
">+	c #6B98CB",
",+	c #1864D5",
"'+	c #1D63E7",
")+	c #1E56E4",
"!+	c #0F3AD6",
"~+	c #1545E9",
"{+	c #1E58E1",
"]+	c #1D66E7",
"^+	c #1F76EC",
"/+	c #258AF3",
"(+	c #2C98F0",
"_+	c #C7E5F9",
":+	c #EAF8FF",
"<+	c #ECF9FF",
"[+	c #F5FEFF",
"}+	c #E3F1F8",
"|+	c #91BAD7",
"1+	c #317EC4",
"2+	c #126DD7",
"3+	c #1D6EEA",
"4+	c #1D60E5",
"5+	c #1D53E5",
"6+	c #0C35CC",
"7+	c #103CDF",
"8+	c #1D54E2",
"9+	c #2064E6",
"0+	c #277AEC",
"a+	c #2F8FF2",
"b+	c #379CEF",
"c+	c #CAE6F8",
"d+	c #F1FBFF",
"e+	c #F5FFFF",
"f+	c #ECF7FB",
"g+	c #A9CDDE",
"h+	c #4999C7",
"i+	c #2990DA",
"j+	c #2D94F1",
"k+	c #2A86F2",
"l+	c #216EE9",
"m+	c #1D5CE3",
"n+	c #1B4FE8",
"o+	c #0829B1",
"p+	c #092DC0",
"q+	c #1C50E7",
"r+	c #2666E5",
"s+	c #307DEB",
"t+	c #3992F1",
"u+	c #409FEE",
"v+	c #CCE6F8",
"w+	c #F2FBFF",
"x+	c #F3FEFF",
"y+	c #F6FEFF",
"z+	c #BBD8E2",
"A+	c #68ADCA",
"B+	c #3DA4D7",
"C+	c #46B3F4",
"D+	c #46AEFA",
"E+	c #3C9CF5",
"F+	c #3387EE",
"G+	c #2870E8",
"H+	c #205AE2",
"I+	c #1547ED",
"J+	c #031462",
"K+	c #184BEF",
"L+	c #2D68E4",
"M+	c #377FEA",
"N+	c #4194F1",
"O+	c #48A1EC",
"P+	c #D2E9F8",
"Q+	c #F8FFFF",
"R+	c #D2E5EC",
"S+	c #83B9CD",
"T+	c #50AACE",
"U+	c #59C2EF",
"V+	c #60C8FE",
"W+	c #58BDFB",
"X+	c #4EAEF6",
"Y+	c #449DF2",
"Z+	c #3A89ED",
"`+	c #2F71E7",
" @	c #235AE5",
".@	c #0E38DA",
"+@	c #0C33C7",
"@@	c #2C66EC",
"#@	c #3E81E9",
"$@	c #4895EF",
"%@	c #4EA3ED",
"&@	c #B7D8EF",
"*@	c #E0EDF2",
"=@	c #96BFD0",
"-@	c #61AFCC",
";@	c #66C7E9",
">@	c #76D9FD",
",@	c #73D4FD",
"'@	c #6ACAFA",
")@	c #60BEF8",
"!@	c #57AFF5",
"~@	c #4B9EF1",
"{@	c #4189EC",
"]@	c #3572E6",
"^@	c #1E52F2",
"/@	c #041977",
"(@	c #1A4BE9",
"_@	c #3F7DEC",
":@	c #4F97ED",
"<@	c #59A9F1",
"[@	c #5FAFE5",
"}@	c #65B0D6",
"|@	c #67BFE2",
"1@	c #7EDCFA",
"2@	c #85E3FE",
"3@	c #83E0FC",
"4@	c #7CD9FA",
"5@	c #73CEF9",
"6@	c #68C0F7",
"7@	c #5DB0F3",
"8@	c #529EEF",
"9@	c #468AEA",
"0@	c #2D68F2",
"a@	c #0B2EB8",
"b@	c #2156EE",
"c@	c #4A8DF1",
"d@	c #60ABF0",
"e@	c #6BBCF5",
"f@	c #76CCF8",
"g@	c #83DBFB",
"h@	c #8DE6FC",
"i@	c #91ECFC",
"j@	c #8EE8FC",
"k@	c #85DEFB",
"l@	c #7AD0F8",
"m@	c #6EC1F5",
"n@	c #63B1F2",
"o@	c #569DEE",
"p@	c #3978F6",
"q@	c #1037C2",
"r@	c #1C4BD9",
"s@	c #4A8EFB",
"t@	c #6BB9F5",
"u@	c #7CCFF7",
"v@	c #89DFFA",
"w@	c #95EEFC",
"x@	c #9CF7FE",
"y@	c #98F1FD",
"z@	c #8CE3FA",
"A@	c #80D4F8",
"B@	c #72C1F4",
"C@	c #5DA6F6",
"D@	c #3674F7",
"E@	c #0D30AD",
"F@	c #0C2A98",
"G@	c #2F67E9",
"H@	c #559DFE",
"I@	c #72C3FF",
"J@	c #86DDFF",
"K@	c #90E9FF",
"L@	c #8BE3FF",
"M@	c #7CD0FF",
"N@	c #65B1FF",
"O@	c #4285FA",
"P@	c #1E4DCF",
"Q@	c #051766",
"R@	c #071C6A",
"S@	c #173BA6",
"T@	c #2658CF",
"U@	c #2D63DA",
"V@	c #2C60D8",
"W@	c #204DC3",
"X@	c #0F2D8E",
"Y@	c #031051",
"                    . + @ #                     ",
"              $ % & * = - ; > , '               ",
"          ) ! ~ { ] ^ / ^ ] ( _ : <             ",
"        [ } | 1 2 3 4 5 5 4 6 7 8 9 0 a         ",
"      b c d e f g h i i i j k l m n o p q       ",
"    r s t u v w x y z A B C D E F G H I J       ",
"    K L M N O P Q R S T U V W X Y Z `  ...+.    ",
"  @.#.$.%.&.*.=.-.;.>.,.'.).!.~.{.].^./.(._.    ",
"  :.<.[.}.|.1.2.3.4.4.5.6.7.8.9.0.a.b.c.d.e.f.  ",
"  g.h.i.j.k.l.m.n.4.4.4.4.o.p.q.r.s.t.u.v.w.x.  ",
"  y.z.A.B.C.D.E.n.4.4.4.4.4.4.F.G.H.I.J.K.L.M.  ",
"N.O.P.Q.R.S.T.U.V.W.W.;.W.W.W.4.4.X.Y.Z.`. +.+  ",
"++@+#+Q.B.$+%+&+F.5.5.5.5.5.*+=+-+;+>+,+'+)+!+  ",
"  ~+{+]+^+/+(+_+>.:+:+:+:+<+[+}+|+1+2+3+4+5+6+  ",
"  7+8+9+0+a+b+c+d+=+<+<+e+f+g+h+i+j+k+l+m+n+o+  ",
"  p+q+r+s+t+u+v+w+<+x+y+z+A+B+C+D+E+F+G+H+I+J+  ",
"    K+L+M+N+O+P+Q+Q+R+S+T+U+V+W+X+Y+Z+`+ @.@    ",
"    +@@@#@$@%@&@*@=@-@;@>@,@'@)@!@~@{@]@^@/@    ",
"      (@_@:@<@[@}@|@1@2@3@4@5@6@7@8@9@0@a@      ",
"        b@c@d@e@f@g@h@i@j@k@l@m@n@o@p@q@        ",
"          r@s@t@u@v@w@x@y@z@A@B@C@D@E@          ",
"            F@G@H@I@J@K@L@M@N@O@P@Q@            ",
"                R@S@T@U@V@W@X@Y@                ",
"                                                "};
