/* XPM */
static const char *previous_xpm[] = {
/* columns rows colors chars-per-pixel */
"32 32 155 2",
"   c None",
".  c #0E141D",
"X  c #0F151F",
"o  c #121925",
"O  c #131925",
"+  c #131B27",
"@  c #1B2535",
"#  c #25344B",
"$  c #2D3E5B",
"%  c #2F405E",
"&  c #324564",
"*  c #324565",
"=  c #35496A",
"-  c #364B6B",
";  c #394F71",
":  c #3A5074",
">  c #3C5378",
",  c #3D5479",
"<  c #3D547A",
"1  c #3F577D",
"2  c #40587F",
"3  c #405880",
"4  c #586B8C",
"5  c #536B93",
"6  c #3280FF",
"7  c #3682FF",
"8  c #3984FF",
"9  c #3A85FF",
"0  c #3F87FF",
"q  c #6D82A5",
"w  c #4289FF",
"e  c #438AFF",
"r  c #458CFF",
"t  c #478CFF",
"y  c #4C8FFF",
"u  c #4F92FF",
"i  c #5093FF",
"p  c #5193FF",
"a  c #5294FF",
"s  c #5696FF",
"d  c #5796FF",
"f  c #5998FF",
"g  c #5A99FF",
"h  c #5F9BFF",
"j  c #5F9CFF",
"k  c #7292C6",
"l  c #609BFF",
"z  c #609CFF",
"x  c #619DFF",
"c  c #669FFF",
"v  c #67A0FF",
"b  c #68A1FF",
"n  c #69A1FF",
"m  c #6CA4FF",
"M  c #6DA4FF",
"N  c #6FA5FF",
"B  c #6FA6FF",
"V  c #71A6FF",
"C  c #76AAFF",
"Z  c #7AACFF",
"A  c #7CAEFF",
"S  c #7FAFFF",
"D  c #819BC6",
"F  c #869EC6",
"G  c #879FC6",
"H  c #88A0C6",
"J  c #89A0C6",
"K  c #8AA0C6",
"L  c #8BA1C6",
"P  c #8CA2C6",
"I  c #8FA3C6",
"U  c #91A5C6",
"Y  c #93A6C6",
"T  c #97A9C6",
"R  c #99AAC7",
"E  c #9BABC7",
"W  c #9CACC7",
"Q  c #9FAEC6",
"!  c #9FAEC7",
"~  c #80B0FF",
"^  c #82B2FF",
"/  c #86B3FF",
"(  c #86B4FF",
")  c #87B4FF",
"_  c #88B5FF",
"`  c #8BB6FF",
"'  c #8DB8FF",
"]  c #8DB9FF",
"[  c #8EB8FF",
"{  c #8EB9FF",
"}  c #8FB9FF",
"|  c #92BBFF",
" . c #93BDFF",
".. c #94BCFF",
"X. c #98BEFF",
"o. c #A3AFC2",
"O. c #A1AFC7",
"+. c #A3AFC4",
"@. c #A4AFC2",
"#. c #A3B1C6",
"$. c #A4B0C2",
"%. c #A4B0C4",
"&. c #A4B1C5",
"*. c #9AC0FF",
"=. c #9EC2FF",
"-. c #9FC3FF",
";. c #A0C4FF",
":. c #A1C4FF",
">. c #A1C5FF",
",. c #A2C5FF",
"<. c #A2C6FF",
"1. c #A6C7FF",
"2. c #A9CAFF",
"3. c #ABCBFF",
"4. c #ACCCFF",
"5. c #ADCCFF",
"6. c #AECCFF",
"7. c #AECDFF",
"8. c #AFCDFF",
"9. c #B1CFFF",
"0. c #B4D0FF",
"q. c #B6D2FF",
"w. c #B7D2FF",
"e. c #BAD4FF",
"r. c #BBD4FF",
"t. c #BBD5FF",
"y. c #BBD6FF",
"u. c #BED6FF",
"i. c #BED7FF",
"p. c #BFD7FF",
"a. c #BFD8FF",
"s. c #C1D9FF",
"d. c #C6DCFF",
"f. c #C7DCFF",
"g. c #C7DDFF",
"h. c #CADEFF",
"j. c #CCE0FF",
"k. c #CFE2FF",
"l. c #D0E1FF",
"z. c #D0E2FF",
"x. c #D3E4FF",
"c. c #D5E5FF",
"v. c #D8E7FF",
"b. c #D9E8FF",
"n. c #DFEBFF",
"m. c #DFECFF",
"M. c #E0ECFF",
"N. c #E6F0FF",
"B. c #E7F0FF",
"V. c #EAF2FF",
"C. c #F0F6FF",
"Z. c #F1F6FF",
"A. c #FAFCFF",
"S. c gray100",
"D. c None",
/* pixels */
"D.D.D.D.D.D.D.D.D.D.D.D.D.D.D.D.D.D.D.D.D.D.D.D.D.D.D.D.D.D.D.D.",
"D.D.D.D.D.D.D.D.D.D.D.D.D.D.D.D.D.D.D.D.D.D.D.D.D.D.D.D.D.D.D.D.",
"D.D.D.D.D.D.D.D.D.D.D.D.D.D.D.D.D.D.3 D.D.D.D.D.D.D.D.D.D.D.D.D.",
"D.D.D.D.D.D.D.D.D.D.D.D.D.D.D.D.3 3 5 3 D.D.D.D.D.D.D.D.D.D.D.D.",
"D.D.D.D.D.D.D.D.D.D.D.D.D.D.D.3 3 G G 3 D.D.D.D.D.D.D.D.D.D.D.D.",
"D.D.D.D.D.D.D.D.D.D.D.D.D.D.3 3 G r.G 3 D.D.D.D.D.D.D.D.D.D.D.D.",
"D.D.D.D.D.D.D.D.D.D.D.D.D.3 3 G / / G 3 D.D.D.D.D.D.D.D.D.D.D.D.",
"D.D.D.D.D.D.D.D.D.D.D.D.3 3 G C p B G 3 D.D.D.D.D.D.D.D.D.D.D.D.",
"D.D.D.D.D.D.D.D.D.D.D.3 3 G S r 9 n G 3 D.D.D.D.D.D.D.D.D.D.D.D.",
"D.D.D.D.D.D.D.D.D.D.3 3 P ~ u 6 9 v D 3 D.D.D.D.D.D.D.D.D.D.D.D.",
"D.D.D.D.D.D.D.D.D.3 3 P ` g 0 7 0 x k 3 3 3 3 3 3 D.D.D.D.D.D.D.",
"D.D.D.D.D.D.D.D.3 3 P | c y w w r d V ` *.,.q.z.3 D.D.D.D.D.D.D.",
"D.D.D.D.D.D.D.3 3 U *.V g a p p a d h v B n / r.3 D.D.D.D.D.D.D.",
"D.D.D.D.D.D.D.3 Y 3.S n x l l l x l h h l l Z 3.3 D.D.D.D.D.D.D.",
"D.D.D.D.D.D.3 q v.,.S V B B B B B B B B B B ` w.3 D.D.D.D.D.D.D.",
"D.D.D.D.D.D.D.3 R r.X./ ~ S S S S S S S S S  .r.3 D.D.D.D.D.D.D.",
"D.D.D.D.D.D.D.3 3 W a.<. .[ [ [ [ [ [ [ | [ ,.g.3 D.D.D.D.D.D.D.",
"D.D.D.D.D.D.D.D.3 3 W g.7.,.-.=.=.,.1.2.3.3.w.v.3 D.D.D.D.D.D.D.",
"D.D.D.D.D.D.D.D.D.3 3 ! x.w.0.3.3.q.s.j.x.c.n.V.3 D.D.D.D.D.D.D.",
"D.D.D.D.D.D.D.D.D.D., 3 +.v.h.r.s.h.T 1 3 3 3 3 3 D.D.D.D.D.D.D.",
"D.D.D.D.D.D.D.        * 2 &.n.x.z.v.Q ,               D.D.D.D.D.",
"D.D.D.D.D.D.            # > &.B.M.B.+.:                 D.D.D.D.",
"D.D.D.D.D.D.              @ ; &.Z.Z.&.-                   D.D.D.",
"D.D.D.D.D.                  o - $.A.$.&                     D.D.",
"D.D.D.D.D.                    . * @.@.%                     D.D.",
"D.D.D.D.D.                      . $ 4 o                     D.D.",
"D.D.D.D.D.                          o                       D.D.",
"D.D.D.D.D.                                                  D.D.",
"D.D.D.D.D.                                                  D.D.",
"D.D.D.D.D.D.                                              D.D.D.",
"D.D.D.D.D.D.                                            D.D.D.D.",
"D.D.D.D.D.D.D.                                        D.D.D.D.D."
};
