/* XPM */
static char * zoom_plus_xpm[] = {
"32 32 383 2",
"  	c None",
". 	c #A7B2B8",
"+ 	c #B0BABF",
"@ 	c #B1BAC0",
"# 	c #AEB8BD",
"$ 	c #A1ACB2",
"% 	c #A2ADB3",
"& 	c #C3CACE",
"* 	c #C3CACF",
"= 	c #C2CACF",
"- 	c #C7CED3",
"; 	c #C9D0D4",
"> 	c #C5CDD1",
", 	c #C1C9CE",
"' 	c #C2CACE",
") 	c #BDC4C9",
"! 	c #C1C8CC",
"~ 	c #C2C9CE",
"{ 	c #C3CBD0",
"] 	c #E3E7E9",
"^ 	c #F8F9FA",
"/ 	c #FFFFFF",
"( 	c #FEFFFF",
"_ 	c #F3F5F6",
": 	c #D8DEE1",
"< 	c #BDC6CB",
"[ 	c #C9CFD3",
"} 	c #AAB4B9",
"| 	c #C9D0D3",
"1 	c #B9C2C7",
"2 	c #D8DDE1",
"3 	c #FAFBFB",
"4 	c #C1CAD0",
"5 	c #C4CBCF",
"6 	c #B1BBC0",
"7 	c #C2C9CD",
"8 	c #B9C2C8",
"9 	c #D9DEE2",
"0 	c #FEFEFF",
"a 	c #BCC5CC",
"b 	c #C6CED2",
"c 	c #A3ADB4",
"d 	c #C7CFD4",
"e 	c #F4F6F8",
"f 	c #FCFDFD",
"g 	c #FBFCFC",
"h 	c #FAFBFC",
"i 	c #FDFDFD",
"j 	c #E6EAEE",
"k 	c #B1BCC4",
"l 	c #CBD2D5",
"m 	c #C5CCD0",
"n 	c #BDC6CC",
"o 	c #DFE3E7",
"p 	c #F5F7F8",
"q 	c #F9FAFA",
"r 	c #F9FAFB",
"s 	c #F7F8F9",
"t 	c #F7F9FA",
"u 	c #ECEFF1",
"v 	c #C7CFD5",
"w 	c #BEC6CB",
"x 	c #ADB6BC",
"y 	c #C7CED1",
"z 	c #CDD4D9",
"A 	c #E0E4E8",
"B 	c #F3F4F6",
"C 	c #F6F7F9",
"D 	c #F4F6F7",
"E 	c #E8EBEE",
"F 	c #D3DADF",
"G 	c #B9C3C9",
"H 	c #A9B3B8",
"I 	c #DADFE4",
"J 	c #E1E6E9",
"K 	c #EEF0F2",
"L 	c #F8FAFA",
"M 	c #FBFBFC",
"N 	c #F6F7F8",
"O 	c #F1F3F5",
"P 	c #E0E5E9",
"Q 	c #D6DCE1",
"R 	c #C5CDD0",
"S 	c #B2BBC0",
"T 	c #C5CCD1",
"U 	c #E5E9EC",
"V 	c #F6F8F9",
"W 	c #FAFAFB",
"X 	c #F6F8F8",
"Y 	c #EBEEF0",
"Z 	c #DDE2E6",
"` 	c #D8DEE3",
" .	c #C8D0D5",
"..	c #C4CBD0",
"+.	c #B3BCC1",
"@.	c #E4E8EB",
"#.	c #E8ECEE",
"$.	c #EFF1F3",
"%.	c #F8F9FB",
"&.	c #FCFCFC",
"*.	c #F0F2F4",
"=.	c #E6EAED",
"-.	c #DBE0E4",
";.	c #CBD2D7",
">.	c #AFB8BE",
",.	c #C6CDD1",
"'.	c #EAEDF0",
").	c #F2F4F5",
"!.	c #FCFCFD",
"~.	c #DCE1E5",
"{.	c #CAD1D7",
"].	c #E0E5E8",
"^.	c #FBFAFB",
"/.	c #F1F3F4",
"(.	c #E9ECEF",
"_.	c #E2E6EA",
":.	c #C6CDD3",
"<.	c #C8CED2",
"[.	c #D3D9DE",
"}.	c #F2F4F6",
"|.	c #FBF9FB",
"1.	c #FAF8FA",
"2.	c #F9F8FA",
"3.	c #E5EAED",
"4.	c #BBC3C8",
"5.	c #C4CCD1",
"6.	c #F5F6F7",
"7.	c #F5F3F6",
"8.	c #F9F1F6",
"9.	c #EFECED",
"0.	c #DEE5DF",
"a.	c #DBE4DD",
"b.	c #E8EAE8",
"c.	c #F5EEF3",
"d.	c #F4EFF3",
"e.	c #ECEEF0",
"f.	c #ECEFF2",
"g.	c #D7DDE1",
"h.	c #9BA7AD",
"i.	c #CCD2D6",
"j.	c #CDD4D8",
"k.	c #F5F5F7",
"l.	c #F8F0F5",
"m.	c #D1E2D5",
"n.	c #7ABE91",
"o.	c #41A566",
"p.	c #299A55",
"q.	c #269A53",
"r.	c #37A05E",
"s.	c #61B27F",
"t.	c #B4D6BF",
"u.	c #EFEAEE",
"v.	c #EEECF0",
"w.	c #BEC7CC",
"x.	c #BEC6CA",
"y.	c #9FACB2",
"z.	c #CBCFD4",
"A.	c #EEEAED",
"B.	c #8AC89F",
"C.	c #199648",
"D.	c #159447",
"E.	c #239D53",
"F.	c #219D52",
"G.	c #229E52",
"H.	c #249E54",
"I.	c #1B974C",
"J.	c #0F9141",
"K.	c #59B279",
"L.	c #E3EAE4",
"M.	c #D0D0D7",
"N.	c #CCD2D5",
"O.	c #94A1A8",
"P.	c #EBE7EA",
"Q.	c #72C08D",
"R.	c #07913C",
"S.	c #2DA55B",
"T.	c #32A95F",
"U.	c #48B36E",
"V.	c #9BD5B1",
"W.	c #9CD6B2",
"X.	c #5ABA7F",
"Y.	c #2DA75A",
"Z.	c #33A860",
"`.	c #0F9543",
" +	c #34A55D",
".+	c #E0E8E1",
"++	c #CDCFD5",
"@+	c #C3CBCF",
"#+	c #EAE0E5",
"$+	c #9AD3AC",
"%+	c #05943B",
"&+	c #37AC60",
"*+	c #41B05F",
"=+	c #43AF58",
"-+	c #71C27B",
";+	c #89CDA1",
">+	c #3BAB51",
",+	c #43B05F",
"'+	c #3CAE62",
")+	c #0E9943",
"!+	c #50B473",
"~+	c #EAE7EA",
"{+	c #CED4DA",
"]+	c #6A6C6E",
"^+	c #1C1B1B",
"/+	c #DFEAE2",
"(+	c #1FA34F",
"_+	c #35AB57",
":+	c #51B45E",
"<+	c #5DB85C",
"[+	c #61B956",
"}+	c #84C978",
"|+	c #FDFEFD",
"1+	c #8ACC9C",
"2+	c #57B550",
"3+	c #61B95C",
"4+	c #54B55D",
"5+	c #45B15F",
"6+	c #06983B",
"7+	c #B3E2C4",
"8+	c #999399",
"9+	c #1D1B1C",
"0+	c #23201F",
"a+	c #2A2929",
"b+	c #A2D8AD",
"c+	c #33A83E",
"d+	c #59B65D",
"e+	c #61B954",
"f+	c #6BBD57",
"g+	c #6EBE56",
"h+	c #8ECC7B",
"i+	c #FEFEFD",
"j+	c #87CB9A",
"k+	c #63B950",
"l+	c #6EBE58",
"m+	c #64BA54",
"n+	c #5CB75A",
"o+	c #3EAC49",
"p+	c #69C679",
"q+	c #B7B2B6",
"r+	c #464A4D",
"s+	c #4D5154",
"t+	c #22201F",
"u+	c #EBE6EC",
"v+	c #7EC87B",
"w+	c #7DC13D",
"x+	c #81C76F",
"y+	c #9FD495",
"z+	c #A3D699",
"A+	c #A3D599",
"B+	c #B4DDAA",
"C+	c #FEFEFE",
"D+	c #B3DEBF",
"E+	c #9CD294",
"F+	c #A5D79B",
"G+	c #A0D597",
"H+	c #7CC67D",
"I+	c #7EC34A",
"J+	c #66BE4E",
"K+	c #CBD5D1",
"L+	c #3D393A",
"M+	c #5C6367",
"N+	c #4C5153",
"O+	c #ECEAEF",
"P+	c #7BC569",
"Q+	c #8EC739",
"R+	c #BDDF8F",
"S+	c #AFDDBF",
"T+	c #86C542",
"U+	c #6CBC41",
"V+	c #DAEDDF",
"W+	c #252321",
"X+	c #60676B",
"Y+	c #2A292A",
"Z+	c #EEEBF1",
"`+	c #84C869",
" @	c #8DC73A",
".@	c #BFE08B",
"+@	c #AEDCC0",
"@@	c #84C544",
"#@	c #72BF41",
"$@	c #DCEDDF",
"%@	c #2E2C2B",
"&@	c #2A2A2A",
"*@	c #EDE9EF",
"=@	c #97D180",
"-@	c #88C63A",
";@	c #96CB42",
">@	c #A3D25D",
",@	c #A5D263",
"'@	c #BFDF95",
")@	c #FFFFFE",
"!@	c #AFDCB5",
"~@	c #9FD067",
"{@	c #A4D25E",
"]@	c #8FC94D",
"^@	c #8FC840",
"/@	c #79C34F",
"(@	c #E4EAE5",
"_@	c #312F2E",
":@	c #C3E4BA",
"<@	c #74BD2B",
"[@	c #84C220",
"}@	c #7EBF1B",
"|@	c #7ABD13",
"1@	c #95CB44",
"2@	c #FEFEFC",
"3@	c #89CB8D",
"4@	c #6DB80E",
"5@	c #7FBF1B",
"6@	c #83C11D",
"7@	c #7DBF24",
"8@	c #97D17F",
"9@	c #EAE7EC",
"0@	c #EDF2EF",
"a@	c #82C553",
"b@	c #7FC01C",
"c@	c #85C225",
"d@	c #84C225",
"e@	c #80C01E",
"f@	c #99CD4B",
"g@	c #8ECD92",
"h@	c #74BB19",
"i@	c #84C221",
"j@	c #70BC2C",
"k@	c #D3EACD",
"l@	c #312E2E",
"m@	c #E9E4EB",
"n@	c #D1EBC6",
"o@	c #78BE2F",
"p@	c #82C11F",
"q@	c #9ACE4D",
"r@	c #8ECE98",
"s@	c #73BB18",
"t@	c #84C222",
"u@	c #76BC1E",
"v@	c #A9D88F",
"w@	c #F0EDF3",
"x@	c #F4F1F7",
"y@	c #C4E4B0",
"z@	c #7FC132",
"A@	c #7FBF1C",
"B@	c #8DC735",
"C@	c #B5DB84",
"D@	c #B5DB88",
"E@	c #86C655",
"F@	c #7DBF1E",
"G@	c #81C01E",
"H@	c #7ABE22",
"I@	c #A4D47E",
"J@	c #F3F5F3",
"K@	c #F5F3F8",
"L@	c #D8EDC8",
"M@	c #98CD5C",
"N@	c #80C127",
"O@	c #7CBE1B",
"P@	c #78BC10",
"Q@	c #7DBF16",
"R@	c #7FC023",
"S@	c #8BC744",
"T@	c #C1E2A3",
"U@	c #F5F6F6",
"V@	c #4C5154",
"W@	c #252423",
"X@	c #1E1B1A",
"Y@	c #EFEBF1",
"Z@	c #F3F7F1",
"`@	c #D4EBBE",
" #	c #B6DC8A",
".#	c #A5D46E",
"+#	c #A2D369",
"@#	c #B0D97F",
"##	c #C8E5AB",
"$#	c #EAF4E3",
"%#	c #F3F0F5",
"&#	c #333130",
"*#	c #505457",
"=#	c #2E2E2F",
"-#	c #F8F5FB",
";#	c #F3F3F4",
">#	c #F2F3F2",
",#	c #F1EDF4",
"'#	c #2D2C2C",
"                . + @ # $                                       ",
"          % & * = - ; > , ' )                                   ",
"        ! ~ { ] ^ / / ( _ : < [ }                               ",
"      | 1 2 / / / / / / / / 3 4 5 6                             ",
"    7 8 9 / / ( ( ( ( ( ( 0 / ( a b %                           ",
"  c > d e f g g g g g g g h 3 i j k l                           ",
"  m n o p q r r 3 3 3 r q ^ s t u v w x                         ",
"  y z A B s ^ r 3 3 3 r ^ C D D E F G &                         ",
"H 5 I J K s L h M M M 3 ^ N _ O P Q 4 R                         ",
"S T J U u V W h g g h 3 r X _ Y Z `  ...                        ",
"+.b @.#.$.p %.h g &.M h r s *.=.A -.;...                        ",
">.,.@.'.).N t W g !.M h ^ N $.#.J ~.{.m                         ",
"$ ,.].u ).N ^ W !.0 !.^.t N /.(._.].:.,.                        ",
"  <.[.}.O N r M W |.1.2.t s *.#.J 3., )                         ",
"  4.5.}.6.6.7.8.9.0.a.b.c.d.e.#.f.g.,.h.                        ",
"    i.j.k.l.m.n.o.p.q.r.s.t.u.v.(.w.x.                          ",
"    y.z.A.B.C.D.E.F.G.H.I.J.K.L.M.N.O.                          ",
"      P.Q.R.S.T.U.V.W.X.Y.Z.`. +.+++@+                          ",
"    #+$+%+&+*+=+-+/ / ;+>+,+'+)+!+~+{+]+^+                      ",
"    /+(+_+:+<+[+}+|+/ 1+2+3+4+5+6+7+8+9+0+a+                    ",
"    b+c+d+e+f+g+h+i+/ j+k+l+m+n+o+p+q+r+s+t+a+                  ",
"  u+v+w+x+y+z+A+B+C+/ D+E+F+G+H+I+J+K+L+M+N+t+a+                ",
"  O+P+Q+R+/ / / / / / / / / / S+T+U+V+  W+X+N+t+Y+              ",
"  Z+`+ @.@/ / / / / / / / / / +@@@#@$@    %@X+N+t+&@            ",
"  *@=@-@;@>@>@,@'@)@/ !@~@{@{@]@^@/@(@      _@X+N+t+&@          ",
"    :@<@[@}@}@|@1@2@/ 3@4@5@}@6@7@8@9@        _@X+N+t+&@        ",
"    0@a@b@c@d@e@f@2@/ g@h@c@d@i@j@k@            l@X+N+t+&@      ",
"    m@n@o@p@d@e@q@/ / r@s@c@t@u@v@w@              l@X+N+t+&@    ",
"      x@y@z@A@p@B@C@D@E@F@G@H@I@J@                  l@X+N+t+&@  ",
"        K@L@M@N@O@P@P@Q@R@S@T@U@                      l@X+V@W@X@",
"          Y@Z@`@ #.#+#@###$#%#                          &#*#=#  ",
"                -#;#>#K@,#                                '#    "};
