/* XPM */
static char * zoom_minus_xpm[] = {
"32 32 376 2",
"  	c None",
". 	c #A7B2B8",
"+ 	c #B0BABF",
"@ 	c #B1BAC0",
"# 	c #AEB8BD",
"$ 	c #A1ACB2",
"% 	c #A2ADB3",
"& 	c #C3CACE",
"* 	c #C3CACF",
"= 	c #C2CACF",
"- 	c #C7CED3",
"; 	c #C9D0D4",
"> 	c #C5CDD1",
", 	c #C1C9CE",
"' 	c #C2CACE",
") 	c #BDC4C9",
"! 	c #C1C8CC",
"~ 	c #C2C9CE",
"{ 	c #C3CBD0",
"] 	c #E3E7E9",
"^ 	c #F8F9FA",
"/ 	c #FFFFFF",
"( 	c #FEFFFF",
"_ 	c #F3F5F6",
": 	c #D8DEE1",
"< 	c #BDC6CB",
"[ 	c #C9CFD3",
"} 	c #AAB4B9",
"| 	c #C9D0D3",
"1 	c #B9C2C7",
"2 	c #D8DDE1",
"3 	c #FAFBFB",
"4 	c #C1CAD0",
"5 	c #C4CBCF",
"6 	c #B1BBC0",
"7 	c #C2C9CD",
"8 	c #B9C2C8",
"9 	c #D9DEE2",
"0 	c #FEFEFF",
"a 	c #BCC5CC",
"b 	c #C6CED2",
"c 	c #A3ADB4",
"d 	c #C7CFD4",
"e 	c #F4F6F8",
"f 	c #FCFDFD",
"g 	c #FBFCFC",
"h 	c #FAFBFC",
"i 	c #FDFDFD",
"j 	c #E6EAEE",
"k 	c #B1BCC4",
"l 	c #CBD2D5",
"m 	c #C5CCD0",
"n 	c #BDC6CC",
"o 	c #DFE3E7",
"p 	c #F5F7F8",
"q 	c #F9FAFA",
"r 	c #F9FAFB",
"s 	c #F7F8F9",
"t 	c #F7F9FA",
"u 	c #ECEFF1",
"v 	c #C7CFD5",
"w 	c #BEC6CB",
"x 	c #ADB6BC",
"y 	c #C7CED1",
"z 	c #CDD4D9",
"A 	c #E0E4E8",
"B 	c #F3F4F6",
"C 	c #F6F7F9",
"D 	c #F4F6F7",
"E 	c #E8EBEE",
"F 	c #D3DADF",
"G 	c #B9C3C9",
"H 	c #A9B3B8",
"I 	c #DADFE4",
"J 	c #E1E6E9",
"K 	c #EEF0F2",
"L 	c #F8FAFA",
"M 	c #FBFBFC",
"N 	c #F6F7F8",
"O 	c #F1F3F5",
"P 	c #E0E5E9",
"Q 	c #D6DCE1",
"R 	c #C5CDD0",
"S 	c #B2BBC0",
"T 	c #C5CCD1",
"U 	c #E5E9EC",
"V 	c #F6F8F9",
"W 	c #FAFAFB",
"X 	c #F6F8F8",
"Y 	c #EBEEF0",
"Z 	c #DDE2E6",
"` 	c #D8DEE3",
" .	c #C8D0D5",
"..	c #C4CBD0",
"+.	c #B3BCC1",
"@.	c #E4E8EB",
"#.	c #E8ECEE",
"$.	c #EFF1F3",
"%.	c #F8F9FB",
"&.	c #FCFCFC",
"*.	c #F0F2F4",
"=.	c #E6EAED",
"-.	c #DBE0E4",
";.	c #CBD2D7",
">.	c #AFB8BE",
",.	c #C6CDD1",
"'.	c #EAEDF0",
").	c #F2F4F5",
"!.	c #FCFCFD",
"~.	c #DCE1E5",
"{.	c #CAD1D7",
"].	c #E0E5E8",
"^.	c #F1F3F4",
"/.	c #E9ECEF",
"(.	c #E2E6EA",
"_.	c #C6CDD3",
":.	c #C8CED2",
"<.	c #D3D9DE",
"[.	c #F2F4F6",
"}.	c #FBF9FB",
"|.	c #FAF8FA",
"1.	c #F9F8FA",
"2.	c #E5EAED",
"3.	c #BBC3C8",
"4.	c #C4CCD1",
"5.	c #F5F6F7",
"6.	c #F5F2F5",
"7.	c #F8F1F6",
"8.	c #EDECEB",
"9.	c #DEE5DF",
"0.	c #DCE4DE",
"a.	c #E9EAE9",
"b.	c #F6EFF4",
"c.	c #F4F0F4",
"d.	c #ECEEF0",
"e.	c #E7EBEE",
"f.	c #ECEFF2",
"g.	c #D7DDE1",
"h.	c #9BA7AD",
"i.	c #CCD2D6",
"j.	c #CED4D8",
"k.	c #F5F4F6",
"l.	c #F7EFF4",
"m.	c #CCDFD1",
"n.	c #76BC8E",
"o.	c #3FA465",
"p.	c #289A54",
"q.	c #269953",
"r.	c #39A15F",
"s.	c #65B481",
"t.	c #B9D8C3",
"u.	c #F2ECF0",
"v.	c #EEEDF1",
"w.	c #BEC7CC",
"x.	c #BEC6CA",
"y.	c #A0ACB2",
"z.	c #CCCFD4",
"A.	c #ECE9EB",
"B.	c #82C499",
"C.	c #179446",
"D.	c #159447",
"E.	c #269E55",
"F.	c #2DA25C",
"G.	c #2EA35C",
"H.	c #289F57",
"I.	c #1A974B",
"J.	c #119142",
"K.	c #60B67F",
"L.	c #E9EDE9",
"M.	c #CFCFD6",
"N.	c #CCD2D5",
"O.	c #94A1A8",
"P.	c #EAE6E9",
"Q.	c #68BC85",
"R.	c #06913C",
"S.	c #2DA65C",
"T.	c #36AB61",
"U.	c #36AB5F",
"V.	c #37AC5F",
"W.	c #36AC5F",
"X.	c #32A860",
"Y.	c #0E9543",
"Z.	c #3DA963",
"`.	c #E6EBE6",
" +	c #CBCED4",
".+	c #C3CBCF",
"++	c #EAE0E5",
"@+	c #8ECEA3",
"#+	c #03933A",
"$+	c #37AC60",
"%+	c #41B05F",
"&+	c #4AB25E",
"*+	c #51B45D",
"=+	c #54B55D",
"-+	c #55B55D",
";+	c #52B45D",
">+	c #4CB35D",
",+	c #42B05E",
"'+	c #3CAE62",
")+	c #0D9842",
"!+	c #5BB97B",
"~+	c #ECE8ED",
"{+	c #CED5DB",
"]+	c #6A6C6E",
"^+	c #1C1B1B",
"/+	c #D8E7DD",
"(+	c #179F49",
"_+	c #36AB58",
":+	c #51B45E",
"<+	c #5DB85C",
"[+	c #66BB5C",
"}+	c #6ABD5C",
"|+	c #6EBF5D",
"1+	c #6BBE5D",
"2+	c #67BC5C",
"3+	c #60B95C",
"4+	c #44B05F",
"5+	c #09993D",
"6+	c #BDE6CC",
"7+	c #958F95",
"8+	c #1D1C1B",
"9+	c #23201F",
"0+	c #2A2929",
"a+	c #97D4A3",
"b+	c #31A83C",
"c+	c #59B65D",
"d+	c #61B954",
"e+	c #6BBD57",
"f+	c #73C05B",
"g+	c #77C15F",
"h+	c #79C260",
"i+	c #79C261",
"j+	c #78C160",
"k+	c #74C05D",
"l+	c #6DBE58",
"m+	c #64BA55",
"n+	c #5DB85B",
"o+	c #3FAC48",
"p+	c #75CB83",
"q+	c #B2ACB1",
"r+	c #44484B",
"s+	c #4D5154",
"t+	c #22201F",
"u+	c #E8E3E9",
"v+	c #77C572",
"w+	c #7DC13D",
"x+	c #80C770",
"y+	c #9ED495",
"z+	c #A3D699",
"A+	c #A6D79B",
"B+	c #A3D596",
"C+	c #A0D392",
"D+	c #A2D595",
"E+	c #A6D79A",
"F+	c #A4D699",
"G+	c #9FD495",
"H+	c #77C476",
"I+	c #81C449",
"J+	c #6AC054",
"K+	c #CBD2D0",
"L+	c #393636",
"M+	c #5D6468",
"N+	c #4C5153",
"O+	c #E6E6E9",
"P+	c #76C363",
"Q+	c #8FC83A",
"R+	c #BFE092",
"S+	c #9FD6AB",
"T+	c #8BC740",
"U+	c #6EBE47",
"V+	c #E4F1EA",
"W+	c #252322",
"X+	c #60676B",
"Y+	c #2A292A",
"Z+	c #E8E7EA",
"`+	c #7FC763",
" @	c #8EC83B",
".@	c #C2E18E",
"+@	c #9FD6AC",
"@@	c #89C641",
"#@	c #75C047",
"$@	c #E6F1E9",
"%@	c #2F2D2C",
"&@	c #2A2A2A",
"*@	c #EBE7ED",
"=@	c #91CF77",
"-@	c #89C63A",
";@	c #96CB42",
">@	c #A2D15C",
",@	c #A1D15B",
"'@	c #A6D366",
")@	c #B1D880",
"!@	c #B7DC8E",
"~@	c #B8DC8F",
"{@	c #B3DA85",
"]@	c #A9D46C",
"^@	c #A3D25C",
"/@	c #A4D25D",
"(@	c #8BC747",
"_@	c #8FC83F",
":@	c #7EC555",
"<@	c #E9EDEA",
"[@	c #312F2E",
"}@	c #BCE1B0",
"|@	c #74BD29",
"1@	c #84C220",
"2@	c #7EBF1B",
"3@	c #7FBF1B",
"4@	c #7EBF1A",
"5@	c #7FC01E",
"6@	c #84C229",
"7@	c #84C32B",
"8@	c #80C020",
"9@	c #84C11E",
"0@	c #7BBF24",
"a@	c #9ED488",
"b@	c #EDE9F0",
"c@	c #EAF0EA",
"d@	c #7EC34C",
"e@	c #7FC01D",
"f@	c #85C225",
"g@	c #84C225",
"h@	c #83C223",
"i@	c #84C224",
"j@	c #73BC30",
"k@	c #D9EDD5",
"l@	c #312E2E",
"m@	c #E8E3EA",
"n@	c #CAE7BE",
"o@	c #76BD2B",
"p@	c #83C11F",
"q@	c #84C221",
"r@	c #76BC20",
"s@	c #B0DB98",
"t@	c #F2EEF4",
"u@	c #F3F0F6",
"v@	c #BEE2A8",
"w@	c #7DC02E",
"x@	c #7FC01C",
"y@	c #84C223",
"z@	c #80C01E",
"A@	c #7CBE24",
"B@	c #A9D785",
"C@	c #F5F6F6",
"D@	c #F5F2F7",
"E@	c #D5EBC3",
"F@	c #96CD58",
"G@	c #7FC026",
"H@	c #7EBF1D",
"I@	c #7EBF1C",
"J@	c #7EBF22",
"K@	c #8DC847",
"L@	c #C5E4A9",
"M@	c #F6F6F8",
"N@	c #4C5154",
"O@	c #252423",
"P@	c #1E1B1A",
"Q@	c #EFECF1",
"R@	c #F2F6EF",
"S@	c #D2EABB",
"T@	c #B5DC89",
"U@	c #A5D46D",
"V@	c #A3D369",
"W@	c #B1DA81",
"X@	c #CAE6AE",
"Y@	c #ECF5E6",
"Z@	c #F3F1F6",
"`@	c #333130",
" #	c #505457",
".#	c #2E2E2F",
"+#	c #F6F3F9",
"@#	c #F3F3F4",
"##	c #F2F3F3",
"$#	c #F5F3F8",
"%#	c #F1EDF4",
"&#	c #2D2C2C",
"                . + @ # $                                       ",
"          % & * = - ; > , ' )                                   ",
"        ! ~ { ] ^ / / ( _ : < [ }                               ",
"      | 1 2 / / / / / / / / 3 4 5 6                             ",
"    7 8 9 / / ( ( ( ( ( ( 0 / ( a b %                           ",
"  c > d e f g g g g g g g h 3 i j k l                           ",
"  m n o p q r r 3 3 3 r q ^ s t u v w x                         ",
"  y z A B s ^ r 3 3 3 r ^ C D D E F G &                         ",
"H 5 I J K s L h M M M 3 ^ N _ O P Q 4 R                         ",
"S T J U u V W h g g h 3 r X _ Y Z `  ...                        ",
"+.b @.#.$.p %.h g &.M h r s *.=.A -.;...                        ",
">.,.@.'.).N t W g !.M h ^ N $.#.J ~.{.m                         ",
"$ ,.].u ).N ^ W !.0 !.W t N ^./.(.]._.,.                        ",
"  :.<.[.O N r M W }.|.1.t s *.#.J 2., )                         ",
"  3.4.[.5.5.6.7.8.9.0.a.b.c.d.e.f.g.,.h.                        ",
"    i.j.k.l.m.n.o.p.q.r.s.t.u.v./.w.x.                          ",
"    y.z.A.B.C.D.E.F.G.H.I.J.K.L.M.N.O.                          ",
"      P.Q.R.S.T.U.V.V.W.T.X.Y.Z.`. +.+                          ",
"    ++@+#+$+%+&+*+=+-+;+>+,+'+)+!+~+{+]+^+                      ",
"    /+(+_+:+<+[+}+|+|+1+2+3+=+4+5+6+7+8+9+0+                    ",
"    a+b+c+d+e+f+g+h+i+j+k+l+m+n+o+p+q+r+s+t+0+                  ",
"  u+v+w+x+y+z+A+B+C+C+D+E+F+G+H+I+J+K+L+M+N+t+0+                ",
"  O+P+Q+R+/ / / / / / / / / / S+T+U+V+  W+X+N+t+Y+              ",
"  Z+`+ @.@/ / / / / / / / / / +@@@#@$@    %@X+N+t+&@            ",
"  *@=@-@;@>@,@'@)@!@~@{@]@^@/@(@_@:@<@      [@X+N+t+&@          ",
"    }@|@1@2@3@4@5@6@7@8@4@2@2@9@0@a@b@        [@X+N+t+&@        ",
"    c@d@e@f@g@g@g@h@h@i@g@g@g@1@j@k@            l@X+N+t+&@      ",
"    m@n@o@p@g@g@g@g@g@g@g@g@q@r@s@t@              l@X+N+t+&@    ",
"      u@v@w@x@h@g@g@g@g@y@z@A@B@C@                  l@X+N+t+&@  ",
"        D@E@F@G@H@e@e@I@J@K@L@M@                      l@X+N@O@P@",
"          Q@R@S@T@U@V@W@X@Y@Z@                          `@ #.#  ",
"                +#@###$#%#                                &#    "};
